<svg width="27" height="27" viewBox="0 0 27 27" fill="none" xmlns="http://www.w3.org/2000/svg">
<g clip-path="url(#clip0)">
<path d="M10.1404 13.5234H4.82324C4.60476 13.5234 4.42773 13.7005 4.42773 13.9189C4.42773 14.1374 4.60476 14.3145 4.82324 14.3145H10.1404C10.3589 14.3145 10.5359 14.1374 10.5359 13.9189C10.5359 13.7005 10.3589 13.5234 10.1404 13.5234Z" fill="black"/>
<path d="M10.1404 16.9736H4.82324C4.60476 16.9736 4.42773 17.1507 4.42773 17.3691C4.42773 17.5876 4.60476 17.7646 4.82324 17.7646H10.1404C10.3589 17.7646 10.5359 17.5876 10.5359 17.3691C10.5359 17.1507 10.3589 16.9736 10.1404 16.9736Z" fill="black"/>
<path d="M10.1404 20.4229H4.82324C4.60476 20.4229 4.42773 20.5999 4.42773 20.8184C4.42773 21.0368 4.60476 21.2139 4.82324 21.2139H10.1404C10.3589 21.2139 10.5359 21.0368 10.5359 20.8184C10.5359 20.5999 10.3589 20.4229 10.1404 20.4229Z" fill="black"/>
<path d="M14.5752 16.4805H15.4146C15.6331 16.4805 15.8101 16.3034 15.8101 16.085C15.8101 15.8665 15.6331 15.6895 15.4146 15.6895H14.5752C14.3567 15.6895 14.1797 15.8665 14.1797 16.085C14.1797 16.3034 14.3568 16.4805 14.5752 16.4805Z" fill="black"/>
<path d="M17.9664 15.6895H17.127C16.9085 15.6895 16.7314 15.8665 16.7314 16.085C16.7314 16.3034 16.9085 16.4805 17.127 16.4805H17.9664C18.1849 16.4805 18.3619 16.3034 18.3619 16.085C18.3619 15.8665 18.1848 15.6895 17.9664 15.6895Z" fill="black"/>
<path d="M20.5152 15.6895H19.6758C19.4573 15.6895 19.2803 15.8665 19.2803 16.085C19.2803 16.3034 19.4573 16.4805 19.6758 16.4805H20.5152C20.7337 16.4805 20.9107 16.3034 20.9107 16.085C20.9107 15.8665 20.7337 15.6895 20.5152 15.6895Z" fill="black"/>
<path d="M23.065 15.6895H22.2256C22.0071 15.6895 21.8301 15.8665 21.8301 16.085C21.8301 16.3034 22.0071 16.4805 22.2256 16.4805H23.065C23.2834 16.4805 23.4605 16.3034 23.4605 16.085C23.4605 15.8665 23.2834 15.6895 23.065 15.6895Z" fill="black"/>
<path d="M14.5752 18.5371H15.4146C15.6331 18.5371 15.8101 18.36 15.8101 18.1416C15.8101 17.9232 15.6331 17.7461 15.4146 17.7461H14.5752C14.3567 17.7461 14.1797 17.9232 14.1797 18.1416C14.1797 18.36 14.3568 18.5371 14.5752 18.5371Z" fill="black"/>
<path d="M17.9664 17.7461H17.127C16.9085 17.7461 16.7314 17.9232 16.7314 18.1416C16.7314 18.36 16.9085 18.5371 17.127 18.5371H17.9664C18.1849 18.5371 18.3619 18.36 18.3619 18.1416C18.3619 17.9232 18.1848 17.7461 17.9664 17.7461Z" fill="black"/>
<path d="M20.5152 17.7461H19.6758C19.4573 17.7461 19.2803 17.9232 19.2803 18.1416C19.2803 18.36 19.4573 18.5371 19.6758 18.5371H20.5152C20.7337 18.5371 20.9107 18.36 20.9107 18.1416C20.9107 17.9232 20.7337 17.7461 20.5152 17.7461Z" fill="black"/>
<path d="M23.065 17.7461H22.2256C22.0071 17.7461 21.8301 17.9232 21.8301 18.1416C21.8301 18.36 22.0071 18.5371 22.2256 18.5371H23.065C23.2834 18.5371 23.4605 18.36 23.4605 18.1416C23.4605 17.9232 23.2834 17.7461 23.065 17.7461Z" fill="black"/>
<path d="M14.5752 20.5938H15.4146C15.6331 20.5938 15.8101 20.4167 15.8101 20.1982C15.8101 19.9798 15.6331 19.8027 15.4146 19.8027H14.5752C14.3567 19.8027 14.1797 19.9798 14.1797 20.1982C14.1797 20.4167 14.3568 20.5938 14.5752 20.5938Z" fill="black"/>
<path d="M17.9664 19.8027H17.127C16.9085 19.8027 16.7314 19.9798 16.7314 20.1982C16.7314 20.4167 16.9085 20.5938 17.127 20.5938H17.9664C18.1849 20.5938 18.3619 20.4167 18.3619 20.1982C18.3619 19.9798 18.1848 19.8027 17.9664 19.8027Z" fill="black"/>
<path d="M20.5152 19.8027H19.6758C19.4573 19.8027 19.2803 19.9798 19.2803 20.1982C19.2803 20.4167 19.4573 20.5938 19.6758 20.5938H20.5152C20.7337 20.5938 20.9107 20.4167 20.9107 20.1982C20.9107 19.9798 20.7337 19.8027 20.5152 19.8027Z" fill="black"/>
<path d="M23.065 19.8027H22.2256C22.0071 19.8027 21.8301 19.9798 21.8301 20.1982C21.8301 20.4167 22.0071 20.5938 22.2256 20.5938H23.065C23.2834 20.5938 23.4605 20.4167 23.4605 20.1982C23.4605 19.9798 23.2834 19.8027 23.065 19.8027Z" fill="black"/>
<path d="M5.69606 9.58483C5.51339 9.46523 5.26817 9.51654 5.14857 9.69926C5.02897 9.88204 5.08023 10.1272 5.26306 10.2467C5.84197 10.6255 6.23284 10.7302 6.75164 10.754V11.2864C6.75164 11.5048 6.92867 11.6819 7.14715 11.6819C7.36563 11.6819 7.54266 11.5048 7.54266 11.2864V10.7244C8.54656 10.5469 9.13276 9.72805 9.26127 8.96356C9.42385 7.99657 8.91765 7.15572 7.9717 6.82133C7.8173 6.76675 7.67492 6.71449 7.54266 6.66392V4.45208C7.92757 4.52739 8.15807 4.72446 8.17653 4.74065C8.3371 4.88651 8.58564 4.87575 8.73308 4.71597C8.88122 4.55539 8.87109 4.30517 8.71051 4.15709C8.6852 4.13373 8.25136 3.74354 7.54266 3.65115V3.1748C7.54266 2.95638 7.36563 2.7793 7.14715 2.7793C6.92867 2.7793 6.75164 2.95638 6.75164 3.1748V3.68158C6.67381 3.69746 6.59413 3.71744 6.5127 3.74196C5.89191 3.92896 5.42796 4.46079 5.30182 5.12993C5.18717 5.73838 5.38092 6.32421 5.80759 6.65886C6.04437 6.84454 6.341 7.01455 6.75164 7.19533V9.96283C6.36705 9.94194 6.11872 9.86131 5.69606 9.58483ZM7.54266 7.50794C7.5965 7.52745 7.65145 7.54717 7.70809 7.56716C8.57156 7.87238 8.51814 8.61277 8.48122 8.83247C8.4065 9.27702 8.08714 9.75068 7.54266 9.91168V7.50794ZM6.2957 6.03638C6.10232 5.88477 6.01937 5.59352 6.07917 5.27638C6.13497 4.98027 6.3381 4.62062 6.74083 4.49928C6.74447 4.49817 6.748 4.49733 6.75164 4.49628V6.32009C6.56533 6.22407 6.41636 6.13104 6.2957 6.03638Z" fill="black"/>
<path d="M22.2001 24.6725C21.9816 24.6725 21.8046 24.8496 21.8046 25.068V25.3508C21.8046 25.824 21.4196 26.209 20.9464 26.209H3.13158C2.65835 26.209 2.27344 25.824 2.27344 25.3508V1.64916C2.27344 1.17598 2.65835 0.791016 3.13158 0.791016H16.9695C17.0113 0.791016 17.0525 0.795076 17.0933 0.801035V4.10817C17.0933 4.87688 17.7187 5.50225 18.4874 5.50225H21.7945C21.8005 5.54307 21.8046 5.5842 21.8046 5.62602V7.51412C21.8046 7.73255 21.9816 7.90963 22.2001 7.90963C22.4185 7.90963 22.5956 7.73255 22.5956 7.51412V5.62602C22.5956 5.17393 22.3791 4.72526 22.1209 4.46866C21.9586 4.30629 18.1399 0.487266 18.1357 0.483047L18.1267 0.474135C18.1263 0.473818 18.126 0.473449 18.1256 0.473133L18.1254 0.472922C18.1243 0.471867 18.1233 0.470865 18.1221 0.469758C17.8249 0.179402 17.415 0 16.9695 0H3.13158C2.22223 0 1.48242 0.739811 1.48242 1.64916V25.3508C1.48242 26.2601 2.22223 26.9999 3.13158 26.9999H20.9464C21.8557 26.9999 22.5955 26.2601 22.5955 25.3508V25.068C22.5956 24.8496 22.4185 24.6725 22.2001 24.6725ZM17.8843 1.35042C18.179 1.64505 20.8473 4.3133 21.2452 4.71124H18.4874C18.1548 4.71124 17.8843 4.44071 17.8843 4.10817V1.35042H17.8843Z" fill="black"/>
<path d="M24.1456 8.97363H13.4961C12.739 8.97363 12.123 9.58957 12.123 10.3467V11.6772C12.123 11.8956 12.3001 12.0727 12.5186 12.0727C12.737 12.0727 12.9141 11.8956 12.9141 11.6772V10.3467C12.9141 10.0258 13.1752 9.76465 13.4961 9.76465H24.1456C24.4665 9.76465 24.7276 10.0257 24.7276 10.3467V22.2432C24.7276 22.5641 24.4665 22.8252 24.1456 22.8252H13.4961C13.1752 22.8252 12.9141 22.5641 12.9141 22.2432V13.5262C12.9141 13.3078 12.737 13.1307 12.5186 13.1307C12.3001 13.1307 12.123 13.3078 12.123 13.5262V22.2432C12.123 23.0002 12.739 23.6162 13.4961 23.6162H24.1456C24.9026 23.6162 25.5186 23.0003 25.5186 22.2432V10.3466C25.5186 9.58957 24.9027 8.97363 24.1456 8.97363Z" fill="#E9041E"/>
<path d="M23.4601 11.5913C23.4601 11.2055 23.1463 10.8916 22.7605 10.8916H14.8794C14.4936 10.8916 14.1797 11.2055 14.1797 11.5913V13.6154C14.1797 14.0012 14.4936 14.3151 14.8794 14.3151H22.7605C23.1462 14.3151 23.4601 14.0012 23.4601 13.6154V11.5913ZM22.6691 13.5241H14.9707V11.6826H22.6691V13.5241H22.6691Z" fill="#E9041E"/>
</g>
<defs>
<clipPath id="clip0">
<rect width="27" height="27" fill="white"/>
</clipPath>
</defs>
</svg>
