<svg width="34" height="34" viewBox="0 0 34 34" fill="none" xmlns="http://www.w3.org/2000/svg">
<path d="M33.0544 14.875C33.3094 14.5924 33.4688 14.2221 33.4688 13.8125C33.4688 12.9338 32.7537 12.2188 31.875 12.2188H31.3438V3.71875H19.6562V10.2749C19.2217 10.4125 18.81 10.6213 18.4508 10.9087L16.8135 12.2188H12.4387L12.3112 12.0913C12.8807 11.8479 13.2812 11.2827 13.2812 10.625C13.2812 10.0842 13.0092 9.60659 12.5959 9.31866L14.3438 8.26944V7.96875C14.3438 6.47647 13.2754 5.21528 11.8038 4.97037L11.6641 4.947L11.7385 4.61178L11.5318 4.40566C11.4075 4.28081 10.2781 3.1875 9.03125 3.1875C7.78441 3.1875 6.65497 4.28081 6.53066 4.40566L6.324 4.61178L6.39838 4.947L6.25866 4.97037C4.78709 5.21528 3.71875 6.47647 3.71875 7.96875V8.26944L5.46656 9.31813C5.05325 9.60659 4.78125 10.0842 4.78125 10.625C4.78125 11.2827 5.18181 11.8479 5.75131 12.0913L3.02069 14.8219C1.41525 16.4268 0.53125 18.5613 0.53125 20.8319V21.25C0.53125 25.9367 4.34456 29.75 9.03125 29.75C13.7179 29.75 17.5312 25.9367 17.5312 21.25V20.8319C17.5312 20.7703 17.5238 20.7097 17.5222 20.6481L17.9632 21.0008C18.4524 21.3924 19.04 21.6421 19.6562 21.7356V30.2812H31.3438V21.7812H31.875C32.7537 21.7812 33.4688 21.0662 33.4688 20.1875C33.4688 19.7779 33.3088 19.4076 33.0544 19.125C33.3094 18.8424 33.4688 18.4721 33.4688 18.0625C33.4688 17.6529 33.3088 17.2826 33.0544 17C33.3094 16.7174 33.4688 16.3471 33.4688 15.9375C33.4688 15.5279 33.3088 15.1576 33.0544 14.875ZM32.4062 18.0625C32.4062 18.3552 32.1682 18.5938 31.875 18.5938H30.8125C30.5193 18.5938 30.2812 18.3552 30.2812 18.0625C30.2812 17.7698 30.5193 17.5312 30.8125 17.5312H31.875C32.1682 17.5312 32.4062 17.7698 32.4062 18.0625ZM27.1363 29.2188H23.8637C23.6295 27.5937 22.3438 26.308 20.7188 26.0738V20.3495C21.777 21.8551 23.5238 22.8438 25.5 22.8438C27.0507 22.8438 28.4909 22.2418 29.5747 21.1793C29.758 21.4078 30.0002 21.5831 30.2812 21.6835V26.0738C28.6562 26.308 27.3705 27.5937 27.1363 29.2188ZM20.7188 14.152C21.0232 13.9198 21.2946 13.6404 21.5135 13.3121L21.5342 13.2812H23.9062C24.684 13.2812 25.3582 12.8568 25.7284 12.232C27.1129 12.2968 28.3757 12.9407 29.2405 14.0319C29.2857 14.3544 29.4249 14.6444 29.6331 14.8755C29.3781 15.1582 29.2188 15.5284 29.2188 15.938C29.2188 16.3476 29.3787 16.7179 29.6331 17.0005C29.3781 17.2832 29.2188 17.6534 29.2188 18.063C29.2188 18.4726 29.3787 18.8429 29.6331 19.1255C29.4249 19.3566 29.2857 19.6467 29.2405 19.9692C28.3278 21.1198 26.9742 21.7812 25.5 21.7812C22.8634 21.7812 20.7188 19.6361 20.7188 17V14.152ZM30.8125 16.4688C30.5193 16.4688 30.2812 16.2302 30.2812 15.9375C30.2812 15.6448 30.5193 15.4062 30.8125 15.4062H31.875C32.1682 15.4062 32.4062 15.6448 32.4062 15.9375C32.4062 16.2302 32.1682 16.4688 31.875 16.4688H30.8125ZM32.4062 13.8125C32.4062 14.1052 32.1682 14.3438 31.875 14.3438H30.8125C30.5193 14.3438 30.2812 14.1052 30.2812 13.8125C30.2812 13.5198 30.5193 13.2812 30.8125 13.2812H31.875C32.1682 13.2812 32.4062 13.5198 32.4062 13.8125ZM30.2812 6.85259C29.2421 6.64062 28.4219 5.82037 28.2099 4.78125H30.2812V6.85259ZM22.7901 4.78125C22.5781 5.82037 21.7579 6.64062 20.7188 6.85259V4.78125H22.7901ZM20.7188 7.92625C22.3438 7.69197 23.6295 6.40634 23.8637 4.78125H27.1363C27.3705 6.40634 28.6562 7.69197 30.2812 7.92625V12.3165C30.0002 12.4169 29.758 12.5922 29.5747 12.8207C28.6152 11.8803 27.3764 11.3061 26.0281 11.1865C26.0286 11.1764 26.0312 11.1669 26.0312 11.1562C26.0312 10.5703 25.5547 10.0938 24.9688 10.0938H20.774C20.7554 10.0938 20.7373 10.098 20.7188 10.0985V7.92625ZM11.6875 10.0938C11.9808 10.0938 12.2188 10.3323 12.2188 10.625C12.2188 10.9177 11.9808 11.1562 11.6875 11.1562H6.375C6.08175 11.1562 5.84375 10.9177 5.84375 10.625C5.84375 10.3323 6.08175 10.0938 6.375 10.0938H11.6875ZM11.6296 6.01853C12.4902 6.16197 13.1389 6.83984 13.2605 7.68028L11.0091 9.03125H10.7562L11.433 5.98559L11.6296 6.01853ZM9.03125 4.25C9.58109 4.25 10.2112 4.67128 10.5703 4.96878L9.66769 9.03125H8.39534L7.49222 4.96878C7.85134 4.67128 8.48141 4.25 9.03125 4.25ZM6.43291 6.01853L6.62947 5.98559L7.30628 9.03125H7.05341L4.80197 7.68028C4.92416 6.83984 5.57228 6.16197 6.43291 6.01853ZM16.4688 21.25C16.4688 25.3512 13.1325 28.6875 9.03125 28.6875C4.93 28.6875 1.59375 25.3512 1.59375 21.25V20.8319C1.59375 18.845 2.36725 16.9772 3.77241 15.5725L7.12619 12.2188H10.9363L14.2901 15.5725C15.6953 16.9772 16.4688 18.845 16.4688 20.8319V21.25ZM18.6272 20.1716L17.3682 19.1643C17.0446 17.5291 16.2462 16.0262 15.0413 14.8213L13.5012 13.2812H17.1865L19.1154 11.7385C19.584 11.3629 20.1737 11.1562 20.774 11.1562H24.9688C24.9688 11.7422 24.4922 12.2188 23.9062 12.2188H20.9658L20.6295 12.7229C20.1748 13.405 19.4135 13.8125 18.5938 13.8125V14.875C18.9603 14.875 19.3168 14.8118 19.6562 14.7039V20.6539C19.2828 20.5721 18.9279 20.4122 18.6272 20.1716ZM20.7188 27.1474C21.7579 27.3594 22.5781 28.1796 22.7901 29.2188H20.7188V27.1474ZM28.2099 29.2188C28.4219 28.1796 29.2421 27.3594 30.2812 27.1474V29.2188H28.2099ZM31.875 20.7188H30.8125C30.5193 20.7188 30.2812 20.4802 30.2812 20.1875C30.2812 19.8948 30.5193 19.6562 30.8125 19.6562H31.875C32.1682 19.6562 32.4062 19.8948 32.4062 20.1875C32.4062 20.4802 32.1682 20.7188 31.875 20.7188Z" fill="black"/>
<path d="M25.5 18.5938C25.2068 18.5938 24.9688 18.3552 24.9688 18.0625H23.9062C23.9062 18.7542 24.352 19.3386 24.9688 19.5585V20.7188H26.0312V19.5585C26.648 19.3386 27.0938 18.7542 27.0938 18.0625C27.0938 17.1838 26.3787 16.4688 25.5 16.4688C25.2068 16.4688 24.9688 16.2302 24.9688 15.9375C24.9688 15.6448 25.2068 15.4062 25.5 15.4062C25.7932 15.4062 26.0312 15.6448 26.0312 15.9375H27.0938C27.0938 15.2458 26.648 14.6614 26.0312 14.4415V13.2812H24.9688V14.4415C24.352 14.6614 23.9062 15.2458 23.9062 15.9375C23.9062 16.8162 24.6213 17.5312 25.5 17.5312C25.7932 17.5312 26.0312 17.7698 26.0312 18.0625C26.0312 18.3552 25.7932 18.5938 25.5 18.5938Z" fill="#E8041E"/>
<path d="M10.9629 26.1991L11.3502 27.1883C13.7764 26.2379 15.4063 23.8515 15.4063 21.25H14.3438C14.3438 23.418 12.9848 25.407 10.9629 26.1991Z" fill="#E8041E"/>
<path d="M9.03125 26.5626V27.6251C9.42013 27.6251 9.81059 27.5895 10.1904 27.5193L9.99759 26.4744C9.6815 26.5328 9.35584 26.5626 9.03125 26.5626Z" fill="#E8041E"/>
</svg>
