<?xml version="1.0" encoding="utf-8"?>
<!-- Generator: Adobe Illustrator 24.3.0, SVG Export Plug-In . SVG Version: 6.00 Build 0)  -->
<svg version="1.1" id="Слой_1" xmlns="http://www.w3.org/2000/svg" xmlns:xlink="http://www.w3.org/1999/xlink" x="0px" y="0px"
	 viewBox="0 0 307.09 304.28" style="enable-background:new 0 0 307.09 304.28;" xml:space="preserve">
<style type="text/css">
	.st0{fill:#E9041E;}
</style>
<g>
	<path d="M208.55,214.5H82.42c-2.15,0-3.91-1.76-3.91-3.91l0,0c0-2.15,1.76-3.91,3.91-3.91h126.13c2.15,0,3.91,1.76,3.91,3.91l0,0
		C212.46,212.74,210.7,214.5,208.55,214.5z"/>
	<path d="M209.41,250.18h-65.42c-2.15,0-3.91-1.76-3.91-3.91v0c0-2.15,1.76-3.91,3.91-3.91h65.42c2.15,0,3.91,1.76,3.91,3.91v0
		C213.32,248.42,211.56,250.18,209.41,250.18z"/>
	<path d="M209.41,275.35h-65.42c-2.15,0-3.91-1.76-3.91-3.91v0c0-2.15,1.76-3.91,3.91-3.91h65.42c2.15,0,3.91,1.76,3.91,3.91v0
		C213.32,273.59,211.56,275.35,209.41,275.35z"/>
	<path d="M208.55,187.53H82.42c-2.15,0-3.91-1.76-3.91-3.91l0,0c0-2.15,1.76-3.91,3.91-3.91h126.13c2.15,0,3.91,1.76,3.91,3.91l0,0
		C212.46,185.77,210.7,187.53,208.55,187.53z"/>
	<path d="M208.55,160.41H82.42c-2.15,0-3.91-1.76-3.91-3.91v0c0-2.15,1.76-3.91,3.91-3.91h126.13c2.15,0,3.91,1.76,3.91,3.91v0
		C212.46,158.66,210.7,160.41,208.55,160.41z"/>
	<path d="M208.55,132.98H82.42c-2.15,0-3.91-1.76-3.91-3.91l0,0c0-2.15,1.76-3.91,3.91-3.91h126.13c2.15,0,3.91,1.76,3.91,3.91l0,0
		C212.46,131.22,210.7,132.98,208.55,132.98z"/>
	<path d="M58.72,132.98H48.33c-2.15,0-3.91-1.76-3.91-3.91l0,0c0-2.15,1.76-3.91,3.91-3.91h10.38c2.15,0,3.91,1.76,3.91,3.91l0,0
		C62.63,131.22,60.87,132.98,58.72,132.98z"/>
	<path d="M58.72,160.44H48.33c-2.15,0-3.91-1.76-3.91-3.91l0,0c0-2.15,1.76-3.91,3.91-3.91h10.38c2.15,0,3.91,1.76,3.91,3.91l0,0
		C62.63,158.68,60.87,160.44,58.72,160.44z"/>
	<path d="M58.72,187.46H48.33c-2.15,0-3.91-1.76-3.91-3.91v0c0-2.15,1.76-3.91,3.91-3.91h10.38c2.15,0,3.91,1.76,3.91,3.91v0
		C62.63,185.7,60.87,187.46,58.72,187.46z"/>
	<path d="M58.72,214.53H48.33c-2.15,0-3.91-1.76-3.91-3.91l0,0c0-2.15,1.76-3.91,3.91-3.91h10.38c2.15,0,3.91,1.76,3.91,3.91l0,0
		C62.63,212.77,60.87,214.53,58.72,214.53z"/>
	<path d="M82.23,244.59c-1.52-1.52-4.01-1.52-5.53,0l-12.62,12.62l-2.9-2.32c-1.68-1.34-4.15-1.06-5.49,0.62s-1.06,4.15,0.62,5.49
		l5.54,4.41c1.5,1.2,3.63,1.09,5.03-0.14c0.29-0.17,0.56-0.36,0.8-0.6l14.56-14.56C83.75,248.6,83.75,246.11,82.23,244.59z"/>
	<path d="M251.76,207.21c0-15.83,0.07-31.66-0.09-47.49c-0.02-2.12-1.25-4.21-1.84-6.33c-0.57-2.04-1.46-4.1-1.47-6.16
		c-0.13-25.66-0.12-51.32-0.16-76.98c-0.01-5.76,1.89-10.48,7.29-13.2c3.69-1.86,2.9-5.2,3.04-8.29
		c0.44-9.89,10.11-15.6,18.47-10.85c4.47,2.54,6.64,6.54,6.42,11.59c-0.17,4.08,0.64,7.19,4.97,8.64c1.14,0.38,2.27,1.54,2.87,2.64
		c1.59,2.93,3.77,4.1,7.16,4.39c5.72,0.49,8.52,4.23,8.56,10.9c0.1,16.16,0.05,32.32,0.06,48.49c0,5.33-0.09,10.67,0.04,15.99
		c0.07,3.09-0.35,6.35-3.91,6.24c-3.52-0.11-3.68-3.45-3.67-6.5c0.08-19.83,0.04-39.66,0.04-59.48c0-1.33,0.35-2.85-0.16-3.95
		c-0.71-1.52-2.09-2.72-3.18-4.05c-0.73,1.38-2.1,2.76-2.11,4.15c-0.12,22.33-0.02,44.65-0.1,66.98c-0.02,4.1,1.46,8.78-3.8,11.43
		c-0.79,0.4-0.56,3.08-0.56,4.71c-0.08,27.99-0.27,55.98-0.08,83.97c0.07,9.81-1.11,18.95-6.99,27.21
		c-3.07,4.31-5.24,9.26-8.03,13.79c-2.65,4.3-5.46,4.46-7.94,0.25c-4.81-8.16-9.38-16.47-13.82-24.84
		c-0.87-1.64-0.97-3.83-0.98-5.77c-0.07-15.83-0.04-31.66-0.04-47.49C251.75,207.21,251.76,207.21,251.76,207.21z M285.71,145.99
		c0.29-0.58,0.57-0.88,0.57-1.17c0.04-25.29,0.09-50.59,0.04-75.88c-0.01-3.55-2.03-5.42-5.73-5.42c-4.99,0-9.98-0.2-14.97-0.2
		c-8.54,0-9.7,1.17-9.72,9.89c-0.03,22.8-0.02,45.6-0.01,68.4c0,1.44,0.18,2.88,0.28,4.39C266.35,145.99,276.1,145.99,285.71,145.99
		z M260.08,155.14c0,32.94,0,65.61,0,98.46c7.21,0,14.11,0,21.26,0c0-32.96,0-65.63,0-98.46
		C274.09,155.14,267.18,155.14,260.08,155.14z M278.21,262.56c-5.49,0-10.26,0-15.6,0c2.7,4.77,5.1,9,7.87,13.89
		C273.22,271.52,275.6,267.25,278.21,262.56z M276.45,55.08c-0.96-3.54-1.57-6.95-2.94-10c-0.32-0.72-4.45-0.88-4.78-0.24
		c-1.53,2.96-2.33,6.29-3.65,10.24C269.45,55.08,272.21,55.08,276.45,55.08z"/>
	<path class="st0" d="M94.52,255.07c0,4.99,0.06,9.98-0.02,14.97c-0.1,6.44-3.01,9.75-9.31,9.87c-10.64,0.2-21.3,0.19-31.94-0.01
		c-5.66-0.11-8.87-2.98-9.04-8.58c-0.32-10.96-0.32-21.95,0-32.92c0.17-5.79,3.03-8.58,8.85-8.73c10.81-0.28,21.63-0.28,32.43,0.07
		c5.84,0.19,8.81,3.93,9.01,9.86c0.01,0.17,0,0.33,0,0.5C94.52,245.09,94.52,250.08,94.52,255.07z M51.51,254.11
		c0.01,0,0.01,0,0.02,0c0,1.99,0,3.99,0,5.98c0,1.99,0,3.99-0.01,5.98c-0.02,6.48-0.02,6.47,6.72,6.48
		c7.98,0.01,15.98-0.26,23.93,0.19c3.64,0.2,4.86-0.87,4.84-4.24c-0.04-9.13-0.07-18.27,0-27.4c0.02-2.93-1.1-4.19-4.12-4.15
		c-9.14,0.11-18.29,0.11-27.43,0c-3.11-0.04-4.08,1.3-3.99,4.21C51.61,245.46,51.51,249.78,51.51,254.11z"/>
	<path d="M0.12,141.77c0-38.33-0.02-76.66,0.01-114.99C0.14,6.13,6.34,0,27.02,0C82.2,0,137.39-0.02,192.57,0.05
		c3.8,0,7.7,0.27,11.39,1.12c7.62,1.76,11.8,7.24,13.53,14.52c0.66,2.78,1.65,4.02,4.58,4.75c10.55,2.63,15.69,9.2,15.72,20.15
		c0.15,67.49,0.18,134.98,0.26,202.47c0.01,12.5,0.12,25,0.07,37.5c-0.05,15.47-8.29,23.71-23.86,23.72
		c-57.52,0.01-115.03-0.03-172.55-0.1c-11.67-0.01-18.13-5.07-21.54-16.23c-0.44-1.45-1.86-3.23-3.21-3.67
		c-12.58-4.04-16.91-9.71-16.93-23.03c-0.04-29.83-0.03-59.66-0.03-89.49c0-10,0-20,0-30C0.04,141.77,0.08,141.77,0.12,141.77z
		 M27.59,95.81c0,2.72,0,4.53,0,6.35c0,59.49,0,118.98,0,178.47c0,11.56,4.07,15.74,15.52,15.74c57.18,0.02,114.36,0.02,171.54,0
		c11.69,0,15.83-4.2,15.83-16.04c0.01-78.66,0-157.31-0.02-235.97c0-12.75-3.96-16.66-16.79-16.67
		c-36.68-0.02-73.35-0.01-110.03,0.01c-1.76,0-3.52,0.18-5.68,0.29c0,2.31,0,4.11,0,5.92c-0.02,13.33,0.08,26.66-0.08,39.99
		c-0.17,13.91-7.82,21.58-21.78,21.83c-10.83,0.19-21.67,0.05-32.51,0.06C38.45,95.81,33.32,95.81,27.59,95.81z M209.82,19.96
		c-0.2-7.98-4.7-11.94-13.14-11.95C139.16,8,81.65,8.01,24.13,8.01c-12.42,0-16.48,4.02-16.48,16.37
		c-0.01,76.83-0.01,153.66-0.01,230.48c0,3.33-0.12,6.68,0.16,9.99c0.59,6.96,5.08,11.11,11.79,10.89c0-1.97,0-3.96,0-5.95
		c0-57,0.06-113.99-0.06-170.99c-0.02-8.69,2.74-15.69,9.04-21.83c16.47-16.06,32.71-32.35,48.82-48.77
		c5.62-5.72,11.93-8.41,20-8.36c35.51,0.2,71.02,0.1,106.53,0.1C205.88,19.96,207.85,19.96,209.82,19.96z M31.67,87.88
		c14.5,0,29.42,0.03,44.35-0.01c9.86-0.02,14.21-4.37,14.3-14.39c0.1-11.31,0.07-22.63,0.1-33.94c0.01-3.41,0-6.83,0-9.13
		C71.01,49.4,51.39,68.59,31.67,87.88z"/>
</g>
<g>
	<path class="st0" d="M132.14,55.95h-11.39v-4.11h27.72v4.11h-11.44v33.33h-4.89V55.95z"/>
	<path class="st0" d="M176.08,89.28c-1.06-1.06-2.06-2.11-3.5-3.67c-3.22,3-6.83,4.28-10.94,4.28c-7.28,0-11.5-4.89-11.5-10.5
		c0-5.11,3.06-8.61,7.33-10.94v-0.17c-1.94-2.44-3.11-5.17-3.11-7.83c0-4.56,3.28-9.22,9.5-9.22c4.67,0,8.28,3.11,8.28,7.94
		c0,3.94-2.28,7.05-8.22,10v0.17c3.17,3.67,6.72,7.78,9.11,10.44c1.72-2.61,2.89-6.22,3.61-10.94h4.44
		c-1,5.89-2.61,10.55-5.39,13.83c2,2.11,3.94,4.22,6.17,6.61H176.08z M170.19,82.83c-2.22-2.44-6.39-7-10.55-11.78
		c-2,1.28-4.83,3.67-4.83,7.61c0,4.28,3.17,7.55,7.67,7.55C165.69,86.22,168.41,84.78,170.19,82.83z M158.8,60
		c0,2.67,1.22,4.72,2.83,6.72c3.78-2.17,6.22-4.17,6.22-7.33c0-2.28-1.28-4.83-4.33-4.83C160.42,54.56,158.8,57.12,158.8,60z"/>
	<path class="st0" d="M212.41,88.06c-1.78,0.89-5.33,1.78-9.89,1.78c-10.55,0-18.5-6.67-18.5-18.94c0-11.72,7.94-19.66,19.55-19.66
		c4.67,0,7.61,1,8.89,1.67l-1.17,3.94c-1.83-0.89-4.44-1.56-7.56-1.56c-8.78,0-14.61,5.61-14.61,15.44
		c0,9.17,5.28,15.05,14.39,15.05c2.94,0,5.94-0.61,7.89-1.55L212.41,88.06z"/>
</g>
</svg>
