<svg width="30" height="30" viewBox="0 0 30 30" fill="none" xmlns="http://www.w3.org/2000/svg">
<path d="M25.5812 13.7181V6.15187C25.5812 4.35361 24.1086 2.86833 22.3102 2.86833H21.9029V2.35543C21.9029 1.0724 20.8627 0.0322662 19.5797 0.0322662C18.2967 0.0322662 17.2565 1.0724 17.2565 2.35543V2.86833H8.73825V2.35543C8.73825 1.05459 7.68366 0 6.38282 0C5.08197 0 4.02739 1.05459 4.02739 2.35543V2.86833H3.67536C1.87704 2.86833 0.413574 4.35361 0.413574 6.15187V23.5255C0.413574 25.3239 1.87704 26.8098 3.67536 26.8098H13.9098C15.5971 28.8282 18.0912 29.9961 20.7219 30C25.607 30 29.5864 26.0198 29.5864 21.1346C29.5865 18.0383 27.9689 15.3026 25.5812 13.7181ZM18.5472 2.35543C18.5372 1.79335 18.9848 1.32963 19.5468 1.31969C19.5559 1.31956 19.5649 1.31949 19.5739 1.31956C20.1413 1.31356 20.6062 1.76864 20.6122 2.33607C20.6123 2.34253 20.6123 2.34898 20.6122 2.35543V4.86884H18.5472V2.35543ZM5.31803 2.35543C5.32416 1.77716 5.79796 1.31336 6.37624 1.31949C6.37727 1.31949 6.37824 1.31949 6.3792 1.31956C6.95961 1.31956 7.4476 1.77509 7.4476 2.35543V4.86884H5.31803V2.35543ZM1.70422 6.15187C1.70422 5.06521 2.5887 4.15898 3.67536 4.15898H4.02739V5.54101C4.02739 5.89736 4.32501 6.15949 4.68142 6.15949H8.07712C8.43346 6.15949 8.73825 5.89736 8.73825 5.54101V4.15898H17.2565V5.54101C17.247 5.87303 17.5084 6.14993 17.8404 6.15949C17.8523 6.15981 17.8642 6.15981 17.876 6.15949H21.2717C21.6089 6.17071 21.8914 5.90645 21.9026 5.56927C21.9029 5.55985 21.903 5.55043 21.9029 5.54101V4.15898H22.3102C23.4043 4.17002 24.2864 5.05785 24.2906 6.15187V8.22452H1.70422V6.15187ZM3.67536 25.5192C2.5887 25.5192 1.70422 24.6122 1.70422 23.5255V9.51517H24.2906V13.0163C23.1672 12.5231 21.9536 12.2687 20.7268 12.2692C15.8417 12.2692 11.8648 16.2551 11.8648 21.1404C11.8623 22.6751 12.259 24.1841 13.016 25.5192H3.67536ZM20.7219 28.6979C16.5416 28.6979 13.1528 25.3091 13.1528 21.1288C13.1528 16.9485 16.5416 13.5597 20.7219 13.5597C24.9022 13.5597 28.291 16.9485 28.291 21.1288V21.1289C28.2863 25.3071 24.9003 28.6932 20.7219 28.6979Z" fill="black"/>
<path d="M23.7619 21.1308H20.9347V17.2479C20.9347 16.8915 20.6458 16.6025 20.2894 16.6025C19.933 16.6025 19.644 16.8915 19.644 17.2479V21.7755C19.6497 22.1343 19.9426 22.4221 20.3015 22.4214H23.7619C24.1183 22.4214 24.4072 22.1325 24.4072 21.7761C24.4072 21.4197 24.1183 21.1308 23.7619 21.1308Z" fill="#E9041E"/>
</svg>
