<svg width="34" height="34" viewBox="0 0 34 34" fill="none" xmlns="http://www.w3.org/2000/svg">
<g clip-path="url(#clip0)">
<path d="M32.3001 13.6003H28.3193C28.2171 10.9948 27.3979 8.46801 25.9518 6.29828C24.5056 4.12856 22.4887 2.40004 20.1232 1.3031C17.7577 0.206171 15.1353 -0.216617 12.5449 0.0813057C9.95445 0.379228 7.49651 1.3863 5.44176 2.99161C3.38701 4.59692 1.81517 6.73818 0.899358 9.17955C-0.016451 11.6209 -0.240697 14.2677 0.251317 16.8283C0.743331 19.389 1.93252 21.7642 3.6879 23.6923C5.44328 25.6204 7.69675 27.0267 10.2001 27.7562V32.3003C10.2001 32.7511 10.3792 33.1835 10.698 33.5023C11.0169 33.8212 11.4493 34.0003 11.9001 34.0003H32.3001C32.751 34.0003 33.1834 33.8212 33.5022 33.5023C33.821 33.1835 34.0001 32.7511 34.0001 32.3003V15.3003C34.0001 14.8494 33.821 14.417 33.5022 14.0982C33.1834 13.7794 32.751 13.6003 32.3001 13.6003ZM32.8668 15.3003V27.2003H11.3335V15.3003C11.3335 15.15 11.3932 15.0058 11.4994 14.8996C11.6057 14.7933 11.7498 14.7336 11.9001 14.7336H32.3001C32.4504 14.7336 32.5946 14.7933 32.7008 14.8996C32.8071 15.0058 32.8668 15.15 32.8668 15.3003ZM21.5261 13.6003C21.4999 12.0215 21.3317 10.4483 21.0235 8.89976C24.3793 9.91976 26.7525 11.6447 27.1435 13.6031L21.5261 13.6003ZM20.3928 13.6003H14.7335V7.94096C16.4299 7.97351 18.1184 8.18241 19.7717 8.56429C20.1527 10.2169 20.3608 11.9046 20.3928 13.6003ZM14.7335 6.80763V1.19026C16.689 1.57899 18.4168 3.95219 19.4368 7.31026C17.8873 7.00189 16.3131 6.83366 14.7335 6.80763ZM13.6001 1.19026V6.80536C12.0214 6.83157 10.4482 6.99979 8.89962 7.30799C9.91679 3.95446 11.6446 1.58126 13.6001 1.19026ZM13.6001 7.93869V13.6003H7.94082C7.97337 11.9038 8.18228 10.2153 8.56416 8.56203C10.2168 8.18106 11.9045 7.97292 13.6001 7.94096V7.93869ZM6.80749 13.6003H1.19012C1.57886 11.6447 3.95206 9.91693 7.31012 8.89976C7.00192 10.4483 6.8337 12.0215 6.80749 13.6003ZM6.80749 14.7336C6.83394 16.3149 7.00292 17.8905 7.31239 19.4415C3.92202 18.4118 1.58282 16.6603 1.19466 14.7336H6.80749ZM7.94082 14.7336H10.3021C10.2358 14.9152 10.2013 15.1069 10.2001 15.3003V20.0931C9.63346 20.0047 9.08568 19.8988 8.55679 19.7752C8.17958 18.1202 7.97392 16.4308 7.94309 14.7336H7.94082ZM10.2001 21.2384V24.1522C9.64254 23.1569 9.20069 22.1012 8.88319 21.0055C9.31159 21.0931 9.75057 21.1707 10.2001 21.2384ZM26.7326 10.7154C25.3981 9.37916 23.302 8.29683 20.7226 7.61116C20.0369 5.03169 18.9546 2.93559 17.6184 1.60109C19.7952 2.20398 21.7789 3.36035 23.3761 4.95759C24.9734 6.55482 26.1297 8.53847 26.7326 10.7154ZM10.7152 1.60109C9.37902 2.93559 8.29669 5.03169 7.61102 7.61116C5.03156 8.29683 2.93546 9.37916 1.60096 10.7154C2.20385 8.53847 3.36022 6.55482 4.95745 4.95759C6.55468 3.36035 8.53834 2.20398 10.7152 1.60109ZM1.58679 17.5669C2.91279 18.9037 5.00436 20.007 7.61046 20.708C8.08135 22.6831 8.9638 24.5366 10.2001 26.1474V26.573C8.12604 25.9114 6.2509 24.7405 4.7462 23.1672C3.24149 21.5939 2.15524 19.6684 1.58679 17.5669ZM32.3001 32.8669H11.9001C11.7498 32.8669 11.6057 32.8072 11.4994 32.701C11.3932 32.5947 11.3335 32.4505 11.3335 32.3003V28.3336H32.8668V32.3003C32.8668 32.4505 32.8071 32.5947 32.7008 32.701C32.5946 32.8072 32.4504 32.8669 32.3001 32.8669Z" fill="black"/>
<path d="M19.5536 25.2876C19.8181 25.4339 20.117 25.5067 20.4192 25.4983C20.7213 25.49 21.0157 25.4008 21.2717 25.24L25.8617 22.3557C26.0979 22.2091 26.2927 22.0046 26.4278 21.7617C26.5629 21.5187 26.6338 21.2453 26.6338 20.9674C26.6338 20.6894 26.5629 20.416 26.4278 20.1731C26.2927 19.9301 26.0979 19.7257 25.8617 19.579L21.2717 16.6947C21.0157 16.5341 20.7213 16.4451 20.4192 16.4367C20.117 16.4283 19.8182 16.501 19.5536 16.6471C19.2946 16.7867 19.0785 16.994 18.9282 17.2469C18.7778 17.4999 18.6991 17.7888 18.7002 18.083V23.8506C18.6989 24.145 18.7775 24.4342 18.9279 24.6873C19.0782 24.9404 19.2945 25.1479 19.5536 25.2876ZM19.8335 18.083C19.8338 17.9914 19.8589 17.9016 19.9062 17.8231C19.9535 17.7447 20.0212 17.6806 20.1021 17.6376C20.185 17.5916 20.2782 17.5672 20.373 17.5668C20.4778 17.5671 20.5804 17.5971 20.6688 17.6535L25.2588 20.5373C25.3328 20.5819 25.3941 20.6449 25.4366 20.7201C25.4791 20.7954 25.5015 20.8804 25.5015 20.9668C25.5015 21.0532 25.4791 21.1382 25.4366 21.2135C25.3941 21.2887 25.3328 21.3517 25.2588 21.3963L20.6688 24.2801C20.5847 24.3339 20.4875 24.3638 20.3877 24.3666C20.2879 24.3694 20.1891 24.345 20.1021 24.296C20.0212 24.253 19.9535 24.1889 19.9062 24.1105C19.8589 24.032 19.8338 23.9422 19.8335 23.8506V18.083Z" fill="#E9041E"/>
<path d="M13.0332 29.4666C12.8829 29.4666 12.7388 29.5263 12.6325 29.6325C12.5263 29.7388 12.4666 29.8829 12.4666 30.0332V31.1666C12.4666 31.3168 12.5263 31.461 12.6325 31.5672C12.7388 31.6735 12.8829 31.7332 13.0332 31.7332C13.1835 31.7332 13.3276 31.6735 13.4339 31.5672C13.5402 31.461 13.5999 31.3168 13.5999 31.1666V30.0332C13.5999 29.8829 13.5402 29.7388 13.4339 29.6325C13.3276 29.5263 13.1835 29.4666 13.0332 29.4666Z" fill="#E9041E"/>
<path d="M15.3001 29.4666C15.1498 29.4666 15.0056 29.5263 14.8994 29.6325C14.7931 29.7388 14.7334 29.8829 14.7334 30.0332V31.1666C14.7334 31.3168 14.7931 31.461 14.8994 31.5672C15.0056 31.6735 15.1498 31.7332 15.3001 31.7332C15.4504 31.7332 15.5945 31.6735 15.7008 31.5672C15.807 31.461 15.8667 31.3168 15.8667 31.1666V30.0332C15.8667 29.8829 15.807 29.7388 15.7008 29.6325C15.5945 29.5263 15.4504 29.4666 15.3001 29.4666Z" fill="#E9041E"/>
<path d="M31.1667 30.0332H22.1C22.1 29.8829 22.0403 29.7388 21.934 29.6325C21.8277 29.5263 21.6836 29.4666 21.5333 29.4666C21.383 29.4666 21.2389 29.5263 21.1326 29.6325C21.0264 29.7388 20.9667 29.8829 20.9667 30.0332H18.1333C17.983 30.0332 17.8389 30.0929 17.7326 30.1992C17.6264 30.3055 17.5667 30.4496 17.5667 30.5999C17.5667 30.7502 17.6264 30.8943 17.7326 31.0006C17.8389 31.1068 17.983 31.1666 18.1333 31.1666H20.9667C20.9667 31.3168 21.0264 31.461 21.1326 31.5672C21.2389 31.6735 21.383 31.7332 21.5333 31.7332C21.6836 31.7332 21.8277 31.6735 21.934 31.5672C22.0403 31.461 22.1 31.3168 22.1 31.1666H31.1667C31.3169 31.1666 31.4611 31.1068 31.5673 31.0006C31.6736 30.8943 31.7333 30.7502 31.7333 30.5999C31.7333 30.4496 31.6736 30.3055 31.5673 30.1992C31.4611 30.0929 31.3169 30.0332 31.1667 30.0332Z" fill="#E9041E"/>
</g>
<defs>
<clipPath id="clip0">
<rect width="34" height="34" fill="white"/>
</clipPath>
</defs>
</svg>
