<svg width="30" height="27" viewBox="0 0 30 27" fill="none" xmlns="http://www.w3.org/2000/svg">
<path d="M4.65675 0H1.55028C0.980752 0 0.517334 0.417129 0.517334 0.929654V3.72547C0.517334 4.23805 0.980811 4.65513 1.55028 4.65513H4.65675C5.22628 4.65513 5.6897 4.238 5.6897 3.72547V0.929654C5.6897 0.417129 5.22628 0 4.65675 0ZM1.55181 3.72547V0.931026L4.65528 0.929654L4.65681 3.7241L1.55181 3.72547Z" fill="#E9041E"/>
<path d="M28.4499 0H9.82604C9.25651 0 8.79321 0.417129 8.79321 0.929654V3.72547C8.79321 4.23805 9.25651 4.65513 9.82604 4.65513H28.4499C29.0194 4.65513 29.4828 4.238 29.4828 3.72547V0.929654C29.4828 0.417129 29.0194 0 28.4499 0ZM9.82769 3.72547V0.931026L28.4484 0.929654L28.4499 3.7241L9.82769 3.72547Z" fill="black"/>
<path d="M4.65675 7.44824H1.55028C0.980752 7.44824 0.517334 7.86532 0.517334 8.3779V11.1737C0.517334 11.6863 0.980811 12.1034 1.55028 12.1034H4.65675C5.22628 12.1034 5.6897 11.6863 5.6897 11.1737V8.3779C5.6897 7.86537 5.22628 7.44824 4.65675 7.44824ZM1.55181 11.1738V8.37932L4.65528 8.37795L4.65681 11.1724L1.55181 11.1738Z" fill="#E9041E"/>
<path d="M28.4499 7.44824H9.82604C9.25651 7.44824 8.79321 7.86532 8.79321 8.3779V11.1737C8.79321 11.6863 9.25651 12.1034 9.82604 12.1034H28.4499C29.0194 12.1034 29.4828 11.6863 29.4828 11.1737V8.3779C29.4828 7.86537 29.0194 7.44824 28.4499 7.44824ZM9.82769 11.1738V8.37932L28.4484 8.37795L28.4499 11.1724L9.82769 11.1738Z" fill="black"/>
<path d="M4.65675 14.8965H1.55028C0.980752 14.8965 0.517334 15.3136 0.517334 15.8261V18.622C0.517334 19.1345 0.980811 19.5516 1.55028 19.5516H4.65675C5.22628 19.5516 5.6897 19.1345 5.6897 18.622V15.8261C5.6897 15.3136 5.22628 14.8965 4.65675 14.8965ZM1.55181 18.622V15.8275L4.65528 15.8261L4.65681 18.6206L1.55181 18.622Z" fill="#E9041E"/>
<path d="M28.4499 14.8965H9.82604C9.25651 14.8965 8.79321 15.3136 8.79321 15.8261V18.622C8.79321 19.1345 9.25651 19.5516 9.82604 19.5516H28.4499C29.0194 19.5516 29.4828 19.1345 29.4828 18.622V15.8261C29.4828 15.3136 29.0194 14.8965 28.4499 14.8965ZM9.82769 18.622V15.8275L28.4484 15.8261L28.4499 18.6206L9.82769 18.622Z" fill="black"/>
<path d="M4.65675 22.3447H1.55028C0.980752 22.3447 0.517334 22.7619 0.517334 23.2744V26.0702C0.517334 26.5828 0.980811 26.9999 1.55028 26.9999H4.65675C5.22628 26.9999 5.6897 26.5827 5.6897 26.0702V23.2744C5.6897 22.7619 5.22628 22.3447 4.65675 22.3447ZM1.55181 26.0703V23.2758L4.65528 23.2744L4.65681 26.0689L1.55181 26.0703Z" fill="#E9041E"/>
<path d="M28.4499 22.3447H9.82604C9.25651 22.3447 8.79321 22.7619 8.79321 23.2744V26.0702C8.79321 26.5828 9.25651 26.9999 9.82604 26.9999H28.4499C29.0194 26.9999 29.4828 26.5827 29.4828 26.0702V23.2744C29.4828 22.7619 29.0194 22.3447 28.4499 22.3447ZM9.82769 26.0703V23.2758L28.4484 23.2744L28.4499 26.0689L9.82769 26.0703Z" fill="black"/>
</svg>
