<svg width="30" height="30" viewBox="0 0 30 30" fill="none" xmlns="http://www.w3.org/2000/svg">
<g clip-path="url(#clip0)">
<path d="M29.8419 12.5606L19.8792 1.91701C19.7684 1.79865 19.6135 1.73145 19.4514 1.73145C19.2892 1.73145 19.1344 1.79859 19.0236 1.91695L13.1937 8.14506C12.2675 7.8699 11.2874 7.72143 10.273 7.72143C4.60846 7.72143 0 12.3299 0 17.9944C0 23.659 4.60846 28.2674 10.273 28.2674C12.1141 28.2674 13.8434 27.7802 15.3393 26.9285H23.7211C24.0446 26.9285 24.307 26.6662 24.307 26.3426V23.9988C24.307 23.6752 24.0446 23.4129 23.7211 23.4129C23.3975 23.4129 23.1352 23.6752 23.1352 23.9988V25.7566H16.9952C19.169 23.8716 20.5461 21.0908 20.5461 17.9944C20.5461 13.7929 18.0103 10.1729 14.389 8.58305L19.4514 3.17484L28.063 12.3751H23.7211C23.3975 12.3751 23.1352 12.6374 23.1352 12.961V23.9988C23.1352 24.3224 23.3975 24.5848 23.7211 24.5848C24.0446 24.5848 24.307 24.3224 24.307 23.9988V13.5469H29.4141C29.6475 13.5469 29.8587 13.4083 29.9516 13.1941C30.0445 12.9799 30.0013 12.731 29.8419 12.5606ZM19.3741 17.9944C19.3741 23.0128 15.2914 27.0956 10.273 27.0956C5.25463 27.0956 1.17188 23.0128 1.17188 17.9944C1.17188 12.9761 5.25463 8.8933 10.273 8.8933C15.2914 8.8933 19.3741 12.9761 19.3741 17.9944Z" fill="black"/>
<path d="M8.82682 19.4273C8.13852 18.743 7.01861 18.743 6.33031 19.4272C5.9958 19.7598 5.81152 20.2023 5.81152 20.6731C5.81152 21.1439 5.9958 21.5863 6.33031 21.9189C6.67449 22.2611 7.12649 22.4322 7.5786 22.4322C8.03059 22.4322 8.48276 22.2611 8.82682 21.9189C9.16139 21.5864 9.34561 21.1439 9.34561 20.6732C9.34561 20.2023 9.16133 19.7599 8.82682 19.4273ZM8.00059 21.0879C7.76791 21.3192 7.38928 21.3193 7.15654 21.0879C7.04498 20.9769 6.98346 20.8296 6.98346 20.6732C6.98346 20.5167 7.04498 20.3694 7.1566 20.2584C7.27291 20.1427 7.42578 20.0849 7.5786 20.0849C7.73141 20.0849 7.88428 20.1427 8.00059 20.2584V20.2585C8.11221 20.3694 8.17373 20.5167 8.17373 20.6732C8.17373 20.8296 8.11221 20.9769 8.00059 21.0879Z" fill="#E9041E"/>
<path d="M12.9671 17.0756C13.4193 17.0756 13.8713 16.9045 14.2155 16.5624C14.55 16.2298 14.7342 15.7874 14.7342 15.3167C14.7342 14.8459 14.55 14.4035 14.2155 14.0709C14.2155 14.0708 14.2155 14.0708 14.2155 14.0708C13.5271 13.3866 12.4072 13.3865 11.719 14.0708C11.3844 14.4034 11.2002 14.8459 11.2002 15.3167C11.2002 15.7875 11.3845 16.2299 11.719 16.5625C12.063 16.9045 12.5151 17.0756 12.9671 17.0756ZM12.5452 14.9019C12.6615 14.7861 12.8143 14.7284 12.9671 14.7284C13.12 14.7284 13.2729 14.7862 13.3892 14.9019C13.5008 15.0128 13.5623 15.1602 13.5623 15.3166C13.5623 15.4731 13.5008 15.6204 13.3892 15.7313C13.1565 15.9628 12.7778 15.9627 12.5451 15.7313C12.4335 15.6203 12.372 15.473 12.372 15.3166C12.372 15.1602 12.4335 15.0128 12.5452 14.9019Z" fill="#E9041E"/>
<path d="M7.55574 14.4673C7.32623 14.2392 6.95521 14.2402 6.72705 14.4697C6.49888 14.6992 6.5 15.0702 6.72945 15.2984L12.9892 21.5216C13.1035 21.6352 13.2529 21.6919 13.4023 21.6919C13.5528 21.6919 13.7034 21.6343 13.8179 21.5191C14.046 21.2896 14.0449 20.9186 13.8155 20.6905L7.55574 14.4673Z" fill="#E9041E"/>
</g>
<defs>
<clipPath id="clip0">
<rect width="30" height="30" fill="white"/>
</clipPath>
</defs>
</svg>
