<svg width="29" height="29" viewBox="0 0 29 29" fill="none" xmlns="http://www.w3.org/2000/svg">
<g clip-path="url(#clip0)">
<path d="M18.7764 14.1884H12.3477V10.0842C12.3477 9.21034 11.4846 8.59397 10.6578 8.87939L0.977277 12.2175C0.392746 12.4191 0 12.9699 0 13.5881V26.8476C0 28.0188 0.952809 28.9716 2.12402 28.9716H18.7764C19.4791 28.9716 20.0508 28.3999 20.0508 27.6972V15.4628C20.0508 14.7602 19.4791 14.1884 18.7764 14.1884ZM1.25425 13.0207C11.2785 9.67507 10.9509 9.47519 11.3199 9.73834C11.641 9.96717 11.4364 10.035 11.4981 14.1884H1.44989C0.772691 14.1884 0.618629 13.2399 1.25425 13.0207V13.0207ZM18.7764 28.122H2.12402C1.42134 28.122 0.849609 27.5503 0.849609 26.8476V14.9074C1.20237 15.0686 18.7707 15.0381 18.7764 15.038C19.0106 15.038 19.2012 15.2286 19.2012 15.4628V18.191H14.7737C13.03 18.191 11.6113 19.6097 11.6113 21.3535C11.6113 23.0972 13.03 24.5159 14.7737 24.5159H19.2012V27.6972C19.2012 27.9315 19.0106 28.122 18.7764 28.122V28.122ZM19.2012 19.0407V23.6663H14.7737C13.4984 23.6663 12.4609 22.6288 12.4609 21.3535C12.4609 20.0781 13.4984 19.0407 14.7737 19.0407H19.2012Z" fill="white"/>
<path d="M22.9111 12.2061C26.2685 12.2061 29 9.47456 29 6.11719C29 2.75981 26.2685 0.0283203 22.9111 0.0283203C19.5538 0.0283203 16.8223 2.75981 16.8223 6.11719C16.8223 9.47456 19.5538 12.2061 22.9111 12.2061ZM22.9111 0.87793C25.8001 0.87793 28.1504 3.22823 28.1504 6.11719C28.1504 9.00614 25.8001 11.3564 22.9111 11.3564C20.0222 11.3564 17.6719 9.00614 17.6719 6.11719C17.6719 3.22823 20.0222 0.87793 22.9111 0.87793Z" fill="white"/>
<path d="M21.9504 6.56335H22.4862V8.53155H20.5415V9.38116H22.4862V10.3652H23.3358V9.38116H23.8716C24.8828 9.38116 25.7053 8.55857 25.7053 7.54742C25.7053 6.53627 24.8828 5.71374 23.8716 5.71374H23.3358V3.74553H25.2805V2.89592H23.3358V1.86914H22.4862V2.89592H21.9504C20.9392 2.89592 20.1167 3.71851 20.1167 4.72966C20.1167 5.74081 20.9392 6.56335 21.9504 6.56335V6.56335ZM23.8716 6.56335C24.4143 6.56335 24.8557 7.0048 24.8557 7.54742C24.8557 8.09009 24.4143 8.53155 23.8716 8.53155H23.3358V6.56335H23.8716ZM21.9504 3.74553H22.4862V5.71374H21.9504C21.4078 5.71374 20.9663 5.27228 20.9663 4.72966C20.9663 4.18699 21.4078 3.74553 21.9504 3.74553Z" fill="white"/>
<path d="M10.1318 7.79541L9.88403 6.98273L7.79779 7.6188C9.59567 4.69784 12.9025 2.91491 16.3806 3.09995L16.4257 2.25153C12.6229 2.04853 9.04082 3.95857 7.06791 7.1817L6.4494 5.15301L5.63672 5.40081L6.68701 8.84558L10.1318 7.79541Z" fill="white"/>
<path d="M22.5933 15.304L22.9664 16.0673L25.0472 15.0501C24.4456 17.2717 23.0358 19.2304 21.0918 20.5086L21.5585 21.2185C23.5902 19.8826 25.0863 17.8638 25.7834 15.5641L26.6471 17.3309L27.4105 16.9578L25.8288 13.7223L22.5933 15.304Z" fill="white"/>
<path d="M13.8018 21.3535C13.8018 22.0562 14.3735 22.6279 15.0762 22.6279C15.7789 22.6279 16.3506 22.0562 16.3506 21.3535C16.3506 20.6508 15.7789 20.0791 15.0762 20.0791C14.3735 20.0791 13.8018 20.6508 13.8018 21.3535V21.3535ZM15.501 21.3535C15.501 21.9157 14.6514 21.9152 14.6514 21.3535C14.6514 21.1192 15.501 20.7919 15.501 21.3535Z" fill="white"/>
</g>
<defs>
<clipPath id="clip0">
<rect width="29" height="29" fill="white"/>
</clipPath>
</defs>
</svg>
