<svg width="28" height="28" viewBox="0 0 28 28" fill="none" xmlns="http://www.w3.org/2000/svg">
<g clip-path="url(#clip0)">
<path d="M27.1806 13.1797C26.7275 13.1797 26.3603 13.5469 26.3603 14C26.3603 20.8149 20.8158 26.3593 14.0009 26.3593C7.186 26.3593 1.64165 20.8149 1.64165 14C1.64165 7.18502 7.186 1.64067 14.0009 1.64067C16.079 1.64067 18.1004 2.15664 19.9049 3.13981L18.8794 4.16536C18.6448 4.39996 18.5746 4.75275 18.7015 5.05933C18.8285 5.36585 19.1276 5.56573 19.4594 5.56573H23.3844C23.8375 5.56573 24.2048 5.19845 24.2048 4.74542V0.820359C24.2048 0.488572 24.0049 0.189488 23.6984 0.0625041C23.3917 -0.0645342 23.0389 0.00568411 22.8044 0.240347L21.1081 1.93658C18.9595 0.668 16.5167 0.000106004 14.0009 0.000106004C10.2614 0.000106004 6.74566 1.45637 4.10142 4.10055C1.45719 6.74484 0.000976562 10.2605 0.000976562 14C0.000976562 17.7395 1.45719 21.2552 4.10142 23.8994C6.74571 26.5437 10.2614 28 14.0009 28C17.7404 28 21.2561 26.5437 23.9003 23.8994C26.5446 21.2552 28.0008 17.7395 28.0008 14C28.0009 13.5469 27.6336 13.1797 27.1806 13.1797Z" fill="white"/>
<path d="M19.2718 13.18H14.8203V8.72851C14.8203 8.27548 14.453 7.9082 14 7.9082C13.547 7.9082 13.1797 8.27548 13.1797 8.72851V14.0004C13.1797 14.4534 13.547 14.8207 14 14.8207H19.2718C19.7248 14.8207 20.0921 14.4534 20.0921 14.0004C20.0921 13.5473 19.7248 13.18 19.2718 13.18Z" fill="white"/>
</g>
<defs>
<clipPath id="clip0">
<rect width="28" height="28" fill="white"/>
</clipPath>
</defs>
</svg>
