<svg width="33" height="33" viewBox="0 0 33 33" fill="none" xmlns="http://www.w3.org/2000/svg">
<g clip-path="url(#clip0)">
<path d="M15.2273 22.3823C15.4793 22.1303 15.4793 21.7225 15.2273 21.4704C14.975 21.2192 14.5663 21.2192 14.3138 21.4704C14.0621 21.7225 14.0621 22.1303 14.3138 22.3823C14.5663 22.6336 14.975 22.6336 15.2273 22.3823Z" fill="white"/>
<path d="M12.1699 7.08783C12.1699 10.9961 15.3557 14.1759 19.2716 14.1759C23.1875 14.1759 26.3733 10.9961 26.3733 7.08783C26.3733 3.17961 23.1875 0 19.2716 0C15.3557 0 12.1699 3.17961 12.1699 7.08783V7.08783ZM25.0822 7.08783C25.0822 10.2856 22.4756 12.8871 19.2716 12.8871C16.0676 12.8871 13.461 10.2856 13.461 7.08783C13.461 3.89035 16.0676 1.28881 19.2716 1.28881C22.4756 1.28881 25.0822 3.89035 25.0822 7.08783Z" fill="white"/>
<path d="M7.46862 32.8094C7.71886 33.0611 8.12626 33.0639 8.37979 32.8146L11.5099 29.737C12.0416 29.2063 12.2033 28.4205 11.9695 27.7374L12.6428 27.0894C13.0053 26.7399 13.4826 26.5473 13.9871 26.5473H22.5698C24.0925 26.5473 25.5316 25.9637 26.6227 24.904C26.6676 24.8605 26.2819 25.3139 32.4779 17.9229C33.3969 16.8378 33.2594 15.2084 32.1712 14.2901C31.0897 13.3805 29.4697 13.5112 28.5482 14.5777L24.7385 18.4856C24.2575 17.8947 23.5239 17.5264 22.7313 17.5264H15.5319C14.5075 17.0986 13.4205 16.8821 12.2989 16.8821C9.19006 16.8821 6.47546 18.3152 5.01864 21.0021C4.40489 20.886 3.75758 21.0713 3.2919 21.5361L0.220604 24.6105C-0.030145 24.8615 -0.0306495 25.2676 0.219595 25.5193L7.46862 32.8094ZM12.2987 18.1707C13.2876 18.1707 14.2436 18.3693 15.1409 18.7611C15.2227 18.7968 15.3107 18.8152 15.3998 18.8152H22.7313C23.4313 18.8152 24.0226 19.385 24.0226 20.1038C24.0226 20.8145 23.4434 21.3926 22.7313 21.3926H17.4638C17.1073 21.3926 16.8182 21.6811 16.8182 22.0369C16.8182 22.3929 17.1073 22.6811 17.4638 22.6811H22.7313C24.1553 22.6811 25.3137 21.525 25.3137 20.1038C25.3137 19.9905 25.3056 19.8782 25.291 19.7669C28.9763 15.9861 29.4959 15.4548 29.5181 15.4284C29.9783 14.8863 30.7951 14.8176 31.3385 15.2748C31.8823 15.7338 31.9512 16.5485 31.4898 17.0936L25.6991 24.0027C24.8536 24.8129 23.7433 25.2588 22.5698 25.2588H13.9871C13.146 25.2588 12.3499 25.5798 11.746 26.1621L11.1973 26.6906L6.13944 21.6428C7.32155 19.4295 9.53969 18.1707 12.2987 18.1707V18.1707ZM4.2056 22.4467C4.41851 22.2342 4.74544 22.196 5.00502 22.3561C5.11677 22.4241 4.79589 22.1325 10.5969 27.9142C10.855 28.1717 10.8411 28.5821 10.6005 28.8223L7.93202 31.446L1.58837 25.0664L4.2056 22.4467Z" fill="white"/>
<path d="M18.4972 3.22192V3.97698C17.7457 4.24285 17.2058 4.95914 17.2058 5.79929C17.2058 6.86504 18.0746 7.73238 19.1427 7.73238C19.4986 7.73238 19.7882 8.02142 19.7882 8.37666C19.7882 8.73191 19.4986 9.02094 19.1427 9.02094C18.867 9.02094 18.569 8.84798 18.3044 8.53352C18.0749 8.2611 17.6677 8.22611 17.3948 8.45497C17.1218 8.68408 17.0865 9.09043 17.3161 9.36285C17.6612 9.77248 18.067 10.058 18.4972 10.202V10.954C18.4972 11.31 18.7862 11.5983 19.1427 11.5983C19.4991 11.5983 19.7882 11.31 19.7882 10.954V10.199C20.5397 9.93286 21.0796 9.21657 21.0796 8.37666C21.0796 7.31067 20.2108 6.44357 19.1427 6.44357C18.7868 6.44357 18.4972 6.15454 18.4972 5.79929C18.4972 5.44405 18.7868 5.15476 19.1427 5.15476C19.3715 5.15476 19.6129 5.27133 19.841 5.49163C20.0973 5.73912 20.5059 5.73232 20.7539 5.47678C21.0019 5.22098 20.9951 4.81311 20.739 4.56562C20.4113 4.24915 20.0834 4.07014 19.7882 3.97245V3.22192C19.7882 2.86592 19.4991 2.57739 19.1427 2.57739C18.7862 2.57739 18.4972 2.86592 18.4972 3.22192V3.22192Z" fill="white"/>
</g>
<defs>
<clipPath id="clip0">
<rect width="33" height="33" fill="white"/>
</clipPath>
</defs>
</svg>
