<svg width="34" height="34" viewBox="0 0 34 34" fill="none" xmlns="http://www.w3.org/2000/svg">
<g clip-path="url(#clip0)">
<path d="M32.3004 13.6004H28.3195C28.2174 10.9949 27.3981 8.46813 25.952 6.29841C24.5059 4.12868 22.489 2.40016 20.1234 1.30323C17.7579 0.206293 15.1355 -0.216495 12.5451 0.0814278C9.95469 0.37935 7.49675 1.38642 5.442 2.99173C3.38725 4.59704 1.81541 6.7383 0.899602 9.17967C-0.0162068 11.621 -0.240453 14.2678 0.251561 16.8285C0.743576 19.3891 1.93276 21.7643 3.68814 23.6924C5.44353 25.6205 7.697 27.0268 10.2004 27.7563V32.3004C10.2004 32.7512 10.3795 33.1836 10.6983 33.5025C11.0171 33.8213 11.4495 34.0004 11.9004 34.0004H32.3004C32.7512 34.0004 33.1836 33.8213 33.5025 33.5025C33.8213 33.1836 34.0004 32.7512 34.0004 32.3004V15.3004C34.0004 14.8495 33.8213 14.4171 33.5025 14.0983C33.1836 13.7795 32.7512 13.6004 32.3004 13.6004ZM32.867 15.3004V27.2004H11.3337V15.3004C11.3337 15.1501 11.3934 15.006 11.4997 14.8997C11.6059 14.7934 11.7501 14.7337 11.9004 14.7337H32.3004C32.4507 14.7337 32.5948 14.7934 32.7011 14.8997C32.8073 15.006 32.867 15.1501 32.867 15.3004ZM21.5263 13.6004C21.5001 12.0216 21.3319 10.4485 21.0237 8.89988C24.3795 9.91988 26.7527 11.6448 27.1437 13.6032L21.5263 13.6004ZM20.393 13.6004H14.7337V7.94108C16.4302 7.97363 18.1187 8.18253 19.7719 8.56441C20.1529 10.217 20.361 11.9047 20.393 13.6004V13.6004ZM14.7337 6.80775V1.19038C16.6893 1.57911 18.417 3.95231 19.437 7.31038C17.8875 7.00201 16.3134 6.83379 14.7337 6.80775V6.80775ZM13.6004 1.19038V6.80548C12.0216 6.83169 10.4485 6.99991 8.89987 7.30811C9.91703 3.95458 11.6448 1.58138 13.6004 1.19038ZM13.6004 7.93881V13.6004H7.94107C7.97362 11.9039 8.18252 10.2154 8.5644 8.56215C10.217 8.18119 11.9047 7.97305 13.6004 7.94108V7.93881ZM6.80773 13.6004H1.19037C1.5791 11.6448 3.9523 9.91705 7.31037 8.89988C7.00217 10.4485 6.83394 12.0216 6.80773 13.6004V13.6004ZM6.80773 14.7337C6.83418 16.315 7.00317 17.8907 7.31263 19.4416C3.92227 18.4119 1.58307 16.6604 1.1949 14.7337H6.80773ZM7.94107 14.7337H10.3024C10.236 14.9153 10.2015 15.107 10.2004 15.3004V20.0932C9.6337 20.0048 9.08592 19.8989 8.55704 19.7753C8.17982 18.1203 7.97417 16.4309 7.94333 14.7337H7.94107ZM10.2004 21.2385V24.1523C9.64279 23.1571 9.20094 22.1013 8.88343 21.0056C9.31183 21.0932 9.75081 21.1709 10.2004 21.2385ZM26.7329 10.7155C25.3984 9.37928 23.3023 8.29695 20.7228 7.61128C20.0371 5.03181 18.9548 2.93571 17.6186 1.60121C19.7955 2.2041 21.7791 3.36047 23.3764 4.95771C24.9736 6.55494 26.13 8.53859 26.7329 10.7155V10.7155ZM10.7155 1.60121C9.37927 2.93571 8.29693 5.03181 7.61127 7.61128C5.0318 8.29695 2.9357 9.37928 1.6012 10.7155C2.20409 8.53859 3.36046 6.55494 4.95769 4.95771C6.55493 3.36047 8.53858 2.2041 10.7155 1.60121V1.60121ZM1.58703 17.567C2.91303 18.9038 5.0046 20.0071 7.6107 20.7081C8.08159 22.6832 8.96405 24.5368 10.2004 26.1475V26.5731C8.12628 25.9116 6.25114 24.7406 4.74644 23.1673C3.24174 21.594 2.15549 19.6685 1.58703 17.567V17.567ZM32.3004 32.867H11.9004C11.7501 32.867 11.6059 32.8073 11.4997 32.7011C11.3934 32.5948 11.3337 32.4507 11.3337 32.3004V28.3337H32.867V32.3004C32.867 32.4507 32.8073 32.5948 32.7011 32.7011C32.5948 32.8073 32.4507 32.867 32.3004 32.867Z" fill="white"/>
<path d="M19.5536 25.2875C19.8181 25.4338 20.117 25.5066 20.4192 25.4982C20.7213 25.4898 21.0157 25.4006 21.2717 25.2399L25.8617 22.3556C26.0979 22.2089 26.2927 22.0045 26.4278 21.7615C26.5629 21.5186 26.6338 21.2452 26.6338 20.9672C26.6338 20.6893 26.5629 20.4159 26.4278 20.173C26.2927 19.93 26.0979 19.7256 25.8617 19.5789L21.2717 16.6946C21.0157 16.534 20.7213 16.4449 20.4192 16.4366C20.117 16.4282 19.8182 16.5008 19.5536 16.647C19.2946 16.7866 19.0785 16.9939 18.9282 17.2468C18.7778 17.4997 18.6991 17.7887 18.7002 18.0829V23.8504C18.6989 24.1448 18.7775 24.4341 18.9279 24.6872C19.0782 24.9403 19.2945 25.1478 19.5536 25.2875V25.2875ZM19.8335 18.0829C19.8338 17.9913 19.8589 17.9015 19.9062 17.823C19.9535 17.7446 20.0212 17.6804 20.1021 17.6375C20.185 17.5914 20.2782 17.5671 20.373 17.5667C20.4778 17.5669 20.5804 17.597 20.6688 17.6534L25.2588 20.5371C25.3328 20.5818 25.3941 20.6448 25.4366 20.72C25.4791 20.7953 25.5015 20.8802 25.5015 20.9667C25.5015 21.0531 25.4791 21.1381 25.4366 21.2133C25.3941 21.2886 25.3328 21.3516 25.2588 21.3962L20.6688 24.28C20.5847 24.3338 20.4875 24.3637 20.3877 24.3665C20.2879 24.3693 20.1891 24.3449 20.1021 24.2958C20.0212 24.2529 19.9535 24.1888 19.9062 24.1103C19.8589 24.0319 19.8338 23.9421 19.8335 23.8504V18.0829Z" fill="white"/>
<path d="M13.0335 29.4666C12.8832 29.4666 12.739 29.5263 12.6328 29.6325C12.5265 29.7388 12.4668 29.8829 12.4668 30.0332V31.1666C12.4668 31.3168 12.5265 31.461 12.6328 31.5672C12.739 31.6735 12.8832 31.7332 13.0335 31.7332C13.1838 31.7332 13.3279 31.6735 13.4342 31.5672C13.5404 31.461 13.6001 31.3168 13.6001 31.1666V30.0332C13.6001 29.8829 13.5404 29.7388 13.4342 29.6325C13.3279 29.5263 13.1838 29.4666 13.0335 29.4666Z" fill="white"/>
<path d="M15.3001 29.4666C15.1498 29.4666 15.0056 29.5263 14.8994 29.6325C14.7931 29.7388 14.7334 29.8829 14.7334 30.0332V31.1666C14.7334 31.3168 14.7931 31.461 14.8994 31.5672C15.0056 31.6735 15.1498 31.7332 15.3001 31.7332C15.4504 31.7332 15.5945 31.6735 15.7008 31.5672C15.807 31.461 15.8667 31.3168 15.8667 31.1666V30.0332C15.8667 29.8829 15.807 29.7388 15.7008 29.6325C15.5945 29.5263 15.4504 29.4666 15.3001 29.4666Z" fill="white"/>
<path d="M31.1669 30.0332H22.1002C22.1002 29.8829 22.0405 29.7388 21.9343 29.6325C21.828 29.5263 21.6839 29.4666 21.5336 29.4666C21.3833 29.4666 21.2391 29.5263 21.1329 29.6325C21.0266 29.7388 20.9669 29.8829 20.9669 30.0332H18.1336C17.9833 30.0332 17.8391 30.0929 17.7329 30.1992C17.6266 30.3055 17.5669 30.4496 17.5669 30.5999C17.5669 30.7502 17.6266 30.8943 17.7329 31.0006C17.8391 31.1068 17.9833 31.1666 18.1336 31.1666H20.9669C20.9669 31.3168 21.0266 31.461 21.1329 31.5672C21.2391 31.6735 21.3833 31.7332 21.5336 31.7332C21.6839 31.7332 21.828 31.6735 21.9343 31.5672C22.0405 31.461 22.1002 31.3168 22.1002 31.1666H31.1669C31.3172 31.1666 31.4613 31.1068 31.5676 31.0006C31.6739 30.8943 31.7336 30.7502 31.7336 30.5999C31.7336 30.4496 31.6739 30.3055 31.5676 30.1992C31.4613 30.0929 31.3172 30.0332 31.1669 30.0332Z" fill="white"/>
</g>
<defs>
<clipPath id="clip0">
<rect width="34" height="34" fill="white"/>
</clipPath>
</defs>
</svg>
