<svg width="30" height="27" viewBox="0 0 30 27" fill="none" xmlns="http://www.w3.org/2000/svg">
<path d="M4.6565 0H1.55004C0.980508 0 0.51709 0.417129 0.51709 0.929654V3.72547C0.51709 4.23805 0.980567 4.65513 1.55004 4.65513H4.6565C5.22604 4.65513 5.68945 4.238 5.68945 3.72547V0.929654C5.68945 0.417129 5.22604 0 4.6565 0ZM1.55156 3.72547V0.931025L4.65504 0.929654L4.65656 3.7241L1.55156 3.72547Z" fill="white"/>
<path d="M28.4496 0H9.8258C9.25627 0 8.79297 0.417129 8.79297 0.929654V3.72547C8.79297 4.23805 9.25627 4.65513 9.8258 4.65513H28.4496C29.0192 4.65513 29.4826 4.238 29.4826 3.72547V0.929654C29.4826 0.417129 29.0192 0 28.4496 0ZM9.82744 3.72547V0.931025L28.4481 0.929654L28.4496 3.7241L9.82744 3.72547Z" fill="white"/>
<path d="M4.6565 7.44824H1.55004C0.980508 7.44824 0.51709 7.86532 0.51709 8.3779V11.1737C0.51709 11.6863 0.980567 12.1034 1.55004 12.1034H4.6565C5.22604 12.1034 5.68945 11.6863 5.68945 11.1737V8.3779C5.68945 7.86537 5.22604 7.44824 4.6565 7.44824ZM1.55156 11.1738V8.37932L4.65504 8.37795L4.65656 11.1724L1.55156 11.1738Z" fill="white"/>
<path d="M28.4496 7.44824H9.8258C9.25627 7.44824 8.79297 7.86532 8.79297 8.3779V11.1737C8.79297 11.6863 9.25627 12.1034 9.8258 12.1034H28.4496C29.0192 12.1034 29.4826 11.6863 29.4826 11.1737V8.3779C29.4826 7.86537 29.0192 7.44824 28.4496 7.44824ZM9.82744 11.1738V8.37932L28.4481 8.37795L28.4496 11.1724L9.82744 11.1738Z" fill="white"/>
<path d="M4.6565 14.8966H1.55004C0.980508 14.8966 0.51709 15.3137 0.51709 15.8263V18.6221C0.51709 19.1347 0.980567 19.5517 1.55004 19.5517H4.6565C5.22604 19.5517 5.68945 19.1347 5.68945 18.6221V15.8263C5.68945 15.3137 5.22604 14.8966 4.6565 14.8966ZM1.55156 18.6221V15.8276L4.65504 15.8263L4.65656 18.6207L1.55156 18.6221Z" fill="white"/>
<path d="M28.4496 14.8966H9.8258C9.25627 14.8966 8.79297 15.3137 8.79297 15.8263V18.6221C8.79297 19.1347 9.25627 19.5517 9.8258 19.5517H28.4496C29.0192 19.5517 29.4826 19.1347 29.4826 18.6221V15.8263C29.4826 15.3137 29.0192 14.8966 28.4496 14.8966ZM9.82744 18.6221V15.8276L28.4481 15.8263L28.4496 18.6207L9.82744 18.6221Z" fill="white"/>
<path d="M4.6565 22.3448H1.55004C0.980508 22.3448 0.51709 22.762 0.51709 23.2745V26.0703C0.51709 26.5829 0.980567 27 1.55004 27H4.6565C5.22604 27 5.68945 26.5828 5.68945 26.0703V23.2745C5.68945 22.762 5.22604 22.3448 4.6565 22.3448ZM1.55156 26.0704V23.2759L4.65504 23.2746L4.65656 26.069L1.55156 26.0704Z" fill="white"/>
<path d="M28.4496 22.3448H9.8258C9.25627 22.3448 8.79297 22.762 8.79297 23.2745V26.0703C8.79297 26.5829 9.25627 27 9.8258 27H28.4496C29.0192 27 29.4826 26.5828 29.4826 26.0703V23.2745C29.4826 22.762 29.0192 22.3448 28.4496 22.3448ZM9.82744 26.0704V23.2759L28.4481 23.2746L28.4496 26.069L9.82744 26.0704Z" fill="white"/>
</svg>
