<svg width="34" height="34" viewBox="0 0 34 34" fill="none" xmlns="http://www.w3.org/2000/svg">
<g clip-path="url(#clip0)">
<path d="M33.8208 14.2359L22.5297 2.1732C22.4041 2.03906 22.2286 1.96289 22.0449 1.96289C21.8611 1.96289 21.6856 2.03899 21.5601 2.17313L14.9529 9.23165C13.9032 8.91981 12.7924 8.75153 11.6427 8.75153C5.22292 8.75153 0 13.9745 0 20.3943C0 26.8141 5.22292 32.037 11.6427 32.037C13.7293 32.037 15.6891 31.4849 17.3846 30.5196H26.8839C27.2506 30.5196 27.548 30.2223 27.548 29.8555V27.1993C27.548 26.8325 27.2506 26.5352 26.8839 26.5352C26.5172 26.5352 26.2198 26.8325 26.2198 27.1993V29.1914H19.2613C21.7249 27.055 23.2856 23.9035 23.2856 20.3943C23.2856 15.6325 20.4116 11.5299 16.3075 9.72804L22.0449 3.59874L31.8047 14.0257H26.8839C26.5172 14.0257 26.2198 14.323 26.2198 14.6897V27.3359C26.2198 27.7027 26.5172 28 26.8839 28C27.2506 28 27.548 27.7027 27.548 27.3359V15.3538H33.3359C33.6005 15.3538 33.8399 15.1967 33.9451 14.9539C34.0505 14.7112 34.0015 14.4291 33.8208 14.2359ZM21.9574 20.3943C21.9574 26.0818 17.3302 30.7089 11.6427 30.7089C5.95525 30.7089 1.32812 26.0818 1.32812 20.3943C1.32812 14.7068 5.95525 10.0797 11.6427 10.0797C17.3303 10.0797 21.9574 14.7068 21.9574 20.3943Z" fill="white"/>
<path d="M10.0045 22.0172C9.22442 21.2417 7.95519 21.2417 7.17512 22.0172C6.79601 22.3941 6.58716 22.8956 6.58716 23.4292C6.58716 23.9627 6.79601 24.4641 7.17512 24.841C7.56519 25.2289 8.07745 25.4228 8.58984 25.4227C9.10209 25.4227 9.61455 25.2288 10.0045 24.8411C10.3837 24.4642 10.5924 23.9627 10.5924 23.4292C10.5924 22.8956 10.3836 22.3941 10.0045 22.0172ZM9.06809 23.8992C8.8044 24.1614 8.37528 24.1615 8.11151 23.8992C7.98508 23.7735 7.91535 23.6065 7.91535 23.4292C7.91535 23.2519 7.98508 23.0849 8.11158 22.9591C8.2434 22.828 8.41665 22.7625 8.58984 22.7625C8.76302 22.7625 8.93628 22.828 9.06809 22.9591V22.9592C9.1946 23.085 9.26432 23.2519 9.26432 23.4293C9.26432 23.6065 9.1946 23.7734 9.06809 23.8992Z" fill="white"/>
<path d="M14.6957 19.3533C15.2081 19.3533 15.7204 19.1594 16.1104 18.7716C16.4896 18.3947 16.6983 17.8933 16.6983 17.3598C16.6983 16.8262 16.4896 16.3248 16.1104 15.9479C16.1104 15.9479 16.1104 15.9479 16.1104 15.9479C15.3303 15.1724 14.0611 15.1723 13.2811 15.9479C12.9019 16.3248 12.6931 16.8262 12.6931 17.3598C12.6931 17.8934 12.902 18.3948 13.2811 18.7717C13.671 19.1594 14.1833 19.3533 14.6957 19.3533V19.3533ZM14.2174 16.8897C14.3492 16.7585 14.5225 16.6931 14.6957 16.6931C14.8689 16.6931 15.0422 16.7586 15.174 16.8897C15.3005 17.0155 15.3702 17.1824 15.3702 17.3597C15.3702 17.5371 15.3005 17.704 15.174 17.8297C14.9103 18.092 14.4811 18.0919 14.2173 17.8297C14.0909 17.704 14.0212 17.537 14.0212 17.3597C14.0212 17.1824 14.0908 17.0155 14.2174 16.8897V16.8897Z" fill="white"/>
<path d="M8.56371 16.3972C8.3036 16.1387 7.88311 16.1398 7.62453 16.4C7.36594 16.6601 7.3672 17.0805 7.62725 17.3391L14.7216 24.3921C14.8512 24.5209 15.0205 24.5852 15.1899 24.5852C15.3604 24.5852 15.5311 24.5198 15.6608 24.3893C15.9193 24.1292 15.9181 23.7088 15.6581 23.4502L8.56371 16.3972Z" fill="white"/>
</g>
<defs>
<clipPath id="clip0">
<rect width="34" height="34" fill="white"/>
</clipPath>
</defs>
</svg>
