<svg width="37" height="37" viewBox="0 0 37 37" fill="none" xmlns="http://www.w3.org/2000/svg">
<g clip-path="url(#clip0)">
<path d="M36.9514 22.2993L35.5919 14.6387C35.5384 14.3434 35.2552 14.1478 34.9604 14.2013C34.6652 14.2549 34.4694 14.5377 34.523 14.8328L35.8826 22.4945C35.9699 22.97 35.8667 23.4512 35.5919 23.8493C35.3172 24.2475 34.904 24.5148 34.4266 24.6024L28 25.6387C27.7051 25.694 27.5108 25.9778 27.566 26.2726C27.6149 26.5338 27.843 26.716 28.0993 26.716L34.6247 25.6706C35.3856 25.5309 36.0467 25.1032 36.4862 24.4662C36.9257 23.8293 37.0909 23.0593 36.9514 22.2993Z" fill="white"/>
<path d="M28.3681 25.576L16.3297 27.7851C15.3473 27.9653 14.4015 27.313 14.2213 26.331L12.3975 16.3916C12.2172 15.4092 12.8696 14.4633 13.8517 14.2831L31.9511 10.9615C32.4263 10.8743 32.9076 10.9774 33.3059 11.2522C33.704 11.5269 33.9714 11.9401 34.0587 12.4156L34.5208 14.9347C34.5749 15.2299 34.8577 15.425 35.1531 15.371C35.4482 15.3168 35.6436 15.0338 35.5894 14.7387L35.1273 12.2196C34.9876 11.4586 34.5598 10.7975 33.9228 10.3579C33.2858 9.9184 32.5159 9.75319 31.7549 9.89291L31.7035 9.90232L31.6213 9.45464C31.4948 8.76511 31.1073 8.16626 30.5303 7.76834C29.9534 7.37048 29.2559 7.22106 28.5666 7.34752L9.92977 10.7672C8.50682 11.0282 7.56155 12.3986 7.82265 13.8219L9.74507 24.2993C9.97692 25.5629 11.0834 26.4497 12.325 26.4497C12.4816 26.4497 12.6404 26.4356 12.7999 26.4063L13.1196 26.3476L13.1526 26.527C13.4086 27.9223 14.6304 28.9015 16.0014 28.9015C16.1743 28.9015 16.3497 28.886 16.5257 28.8537L28.5641 26.6446C28.8592 26.5904 29.0545 26.3073 29.0003 26.0123C28.9462 25.7172 28.6627 25.5217 28.3681 25.576ZM12.6038 25.3378C11.7697 25.491 10.9667 24.937 10.8138 24.1032L8.89135 13.6259C8.73838 12.7918 9.29217 11.9888 10.1259 11.8359L28.7627 8.41622C29.1666 8.34198 29.5756 8.42962 29.9136 8.66277C30.2516 8.89592 30.4786 9.24676 30.5527 9.65085L30.6349 10.0985L13.6555 13.2146C12.0843 13.5029 11.0405 15.016 11.3288 16.5877L12.9236 25.2791L12.6038 25.3378Z" fill="white"/>
<path d="M19.3398 19.3735C19.3398 22.0204 21.4932 24.1737 24.1401 24.1737C26.787 24.1737 28.9403 22.0204 28.9403 19.3735C28.9403 16.7266 26.787 14.5732 24.1401 14.5732C21.4932 14.5732 19.3398 16.7266 19.3398 19.3735ZM27.8538 19.3735C27.8538 21.4213 26.1878 23.0873 24.1401 23.0873C22.0923 23.0873 20.4263 21.4213 20.4263 19.3735C20.4263 17.3257 22.0923 15.6597 24.1401 15.6597C26.1878 15.6597 27.8538 17.3257 27.8538 19.3735Z" fill="white"/>
<path d="M0.672366 22.8014L3.9482 22.0006C4.23965 21.9293 4.41812 21.6354 4.34692 21.344C4.27572 21.0525 3.98166 20.8743 3.69028 20.9452L0.414373 21.746C0.122917 21.8173 -0.0555486 22.1113 0.0156494 22.4027C0.0762727 22.6508 0.298413 22.817 0.542935 22.817C0.585595 22.817 0.629053 22.812 0.672366 22.8014V22.8014Z" fill="white"/>
<path d="M7.9363 26.7929L4.66047 27.5937C4.36901 27.665 4.19055 27.959 4.26174 28.2503C4.32237 28.4985 4.54451 28.6647 4.78903 28.6647C4.83169 28.6647 4.87515 28.6596 4.91846 28.6491L8.19429 27.8483C8.48575 27.777 8.66421 27.483 8.59301 27.1916C8.52182 26.9003 8.22775 26.7219 7.9363 26.7929V26.7929Z" fill="white"/>
<path d="M6.3778 23.4939L1.28211 24.8042C0.991524 24.8789 0.816535 25.175 0.891282 25.4655C0.954368 25.7107 1.17499 25.8736 1.41697 25.8736C1.46173 25.8736 1.50729 25.868 1.55263 25.8564L6.64833 24.546C6.93891 24.4713 7.1139 24.1752 7.03915 23.8847C6.96441 23.5941 6.66817 23.419 6.3778 23.4939V23.4939Z" fill="white"/>
<path d="M6.43941 21.4331C6.48084 21.4331 6.52285 21.4284 6.56486 21.4184L7.2533 21.2556C7.54526 21.1865 7.72597 20.8939 7.65695 20.6019C7.58785 20.31 7.29509 20.1293 7.00327 20.1983L6.31483 20.3611C6.02287 20.4302 5.84216 20.7228 5.91118 21.0148C5.97036 21.2647 6.19329 21.4331 6.43941 21.4331V21.4331Z" fill="white"/>
<path d="M2.03342 28.3328L0.795895 28.6241C0.50386 28.6928 0.322786 28.9853 0.391522 29.2773C0.450407 29.5276 0.673489 29.6962 0.919821 29.6962C0.961033 29.6962 1.00283 29.6915 1.04469 29.6817L2.28222 29.3904C2.57425 29.3217 2.75532 29.0292 2.68659 28.7372C2.61785 28.4452 2.32546 28.2644 2.03342 28.3328V28.3328Z" fill="white"/>
</g>
<defs>
<clipPath id="clip0">
<rect width="37" height="37" fill="white"/>
</clipPath>
</defs>
</svg>
