<svg width="45" height="40" viewBox="0 0 45 40" fill="none" xmlns="http://www.w3.org/2000/svg">
<path d="M34.5 21C33.6727 21 33 21.6727 33 22.5C33 23.3273 33.6727 24 34.5 24C35.3273 24 36 23.3273 36 22.5C36 21.6727 35.3273 21 34.5 21ZM34.5 23.25C34.0866 23.25 33.75 22.9134 33.75 22.5C33.75 22.0866 34.0866 21.75 34.5 21.75C34.9134 21.75 35.25 22.0866 35.25 22.5C35.25 22.9134 34.9134 23.25 34.5 23.25Z" fill="white"/>
<path d="M35.6 25H32.4C32.1789 25 32 25.183 32 25.4091V27.0455C32 27.2716 32.1789 27.4546 32.4 27.4546H32.8V33.5909C32.8 33.817 32.9789 34 33.2 34H35.6C35.8211 34 36 33.817 36 33.5909V25.4091C36 25.183 35.8211 25 35.6 25ZM35.1999 33.1818H33.6V27.0454C33.6 26.8193 33.421 26.6363 33.1999 26.6363H32.7999V25.8182H35.1999V33.1818H35.1999Z" fill="white"/>
<path fill-rule="evenodd" clip-rule="evenodd" d="M0 4.6118C0 2.08444 2.01119 0 4.53557 0H36.5513C39.0758 0 41.087 2.08444 41.087 4.6118V14.6739C41.087 15.2141 40.6489 15.6522 40.1087 15.6522C39.5685 15.6522 39.1304 15.2141 39.1304 14.6739V4.6118C39.1304 3.12568 37.9563 1.95652 36.5513 1.95652H4.53557C3.13065 1.95652 1.95652 3.12568 1.95652 4.6118V22.7796C1.95652 24.2656 3.13065 25.4348 4.53557 25.4348H18.587C19.1272 25.4348 19.5652 25.8728 19.5652 26.413C19.5652 26.9532 19.1272 27.3913 18.587 27.3913H4.53557C2.01119 27.3913 0 25.3068 0 22.7796V4.6118Z" fill="white"/>
<path fill-rule="evenodd" clip-rule="evenodd" d="M0 6.84789C0 6.30762 0.437983 5.86963 0.978261 5.86963H40.1087C40.6489 5.86963 41.087 6.30762 41.087 6.84789C41.087 7.38817 40.6489 7.82615 40.1087 7.82615H0.978261C0.437983 7.82615 0 7.38817 0 6.84789Z" fill="white"/>
<path fill-rule="evenodd" clip-rule="evenodd" d="M3.91309 16.6304C3.91309 16.0902 4.35107 15.6521 4.89135 15.6521H8.80439C9.34466 15.6521 9.78265 16.0902 9.78265 16.6304C9.78265 17.1706 9.34466 17.6086 8.80439 17.6086H4.89135C4.35107 17.6086 3.91309 17.1706 3.91309 16.6304Z" fill="white"/>
<path fill-rule="evenodd" clip-rule="evenodd" d="M3.91309 21.5217C3.91309 20.9815 4.35107 20.5435 4.89135 20.5435H12.7174C13.2577 20.5435 13.6957 20.9815 13.6957 21.5217C13.6957 22.0619 13.2577 22.5 12.7174 22.5H4.89135C4.35107 22.5 3.91309 22.0619 3.91309 21.5217Z" fill="white"/>
<path fill-rule="evenodd" clip-rule="evenodd" d="M34.2389 19.5652C29.3764 19.5652 25.4345 23.507 25.4345 28.3695C25.4345 33.232 29.3764 37.1739 34.2389 37.1739C39.1014 37.1739 43.0432 33.232 43.0432 28.3695C43.0432 23.507 39.1014 19.5652 34.2389 19.5652ZM23.478 28.3695C23.478 22.4264 28.2958 17.6086 34.2389 17.6086C40.182 17.6086 44.9998 22.4264 44.9998 28.3695C44.9998 34.3126 40.182 39.1304 34.2389 39.1304C28.2958 39.1304 23.478 34.3126 23.478 28.3695Z" fill="white"/>
</svg>
