<svg width="36" height="36" viewBox="0 0 36 36" fill="none" xmlns="http://www.w3.org/2000/svg">
<g clip-path="url(#clip0)">
<path d="M18.0749 6.29321C11.6199 6.29321 6.36816 11.5446 6.36816 17.9999C6.36816 24.4549 11.6199 29.7066 18.0749 29.7066C24.5302 29.7066 29.7816 24.4549 29.7816 17.9999C29.7816 11.5446 24.5302 6.29321 18.0749 6.29321ZM12.1828 26.5666V22.4631C12.186 21.2004 13.1287 20.1372 14.3818 19.9828C16.038 21.9129 18.9015 22.2412 20.9512 20.7359C21.2511 20.5166 21.5247 20.2641 21.767 19.9828C23.0207 20.1372 23.9634 21.2001 23.9669 22.4631V26.5666C22.2484 27.7206 20.2579 28.3973 18.0749 28.3973C15.8919 28.3973 13.9014 27.7206 12.1828 26.5666ZM25.2763 25.4992V22.4631C25.2708 20.36 23.5661 18.6572 21.4627 18.6546C21.2546 18.6546 21.0586 18.754 20.9352 18.9218C20.2665 19.8322 19.2046 20.3702 18.0749 20.3702C16.9452 20.3702 15.8829 19.8322 15.2142 18.9218C15.0911 18.754 14.8952 18.6546 14.6871 18.6546C12.584 18.6572 10.8789 20.36 10.8735 22.4631V25.4992C8.83085 23.5391 7.67527 20.8309 7.67367 17.9999C7.67367 12.2668 12.3398 7.60255 18.073 7.60255C23.8061 7.60255 28.4748 12.2671 28.4748 17.9999C28.4738 20.8309 27.3186 23.5391 25.2763 25.4992Z" fill="white"/>
<path d="M33.9647 19.8363C34.1229 18.3767 34.0845 16.9025 33.8512 15.4528L35.663 13.7151C35.8612 13.5252 35.9197 13.2318 35.8098 12.9802L33.747 8.26483C33.6357 8.01038 33.3762 7.85375 33.099 7.87452L30.5909 8.05897C29.6882 6.89731 28.617 5.87695 27.4128 5.03176L27.4864 2.52624C27.4947 2.24877 27.3268 1.99624 27.0679 1.89618L22.2685 0.0437323C22.0105 -0.055683 21.7177 0.0175199 21.5371 0.226899L19.9119 2.11036C18.452 1.95244 16.9774 1.99048 15.5278 2.22384L13.7901 0.411984C13.6002 0.213793 13.3067 0.155295 13.0552 0.265259L8.34012 2.32869C8.08567 2.43993 7.92903 2.69949 7.94949 2.97632L8.13394 5.48472C6.97228 6.38745 5.95191 7.45864 5.10672 8.66249L2.6012 8.58897C2.32341 8.5797 2.07056 8.74784 1.97114 9.00773L0.119014 13.8068C0.0192794 14.0648 0.0924823 14.3573 0.301862 14.5382L2.18564 16.1634C2.02741 17.623 2.06544 19.0973 2.29912 20.5469L0.486947 22.2846C0.288756 22.4745 0.230257 22.768 0.340541 23.0195L2.40365 27.7346C2.51489 27.989 2.77446 28.1457 3.05161 28.1252L5.55969 27.9407C6.46242 29.1024 7.53361 30.1228 8.73746 30.968L8.66394 33.4735C8.65563 33.7509 8.82345 34.0035 9.0827 34.1035L13.8821 35.956C14.1401 36.0557 14.4329 35.9825 14.6135 35.7728L16.2384 33.889C17.6979 34.0473 19.1722 34.0092 20.6219 33.7759L22.3596 35.5877C22.5498 35.7859 22.8429 35.8444 23.0945 35.7345L27.8099 33.6714C28.064 33.5601 28.2206 33.3005 28.2002 33.0237L28.0157 30.5156C29.1774 29.6126 30.1977 28.5414 31.0429 27.3372L33.5485 27.4107C33.8259 27.4187 34.0785 27.2509 34.1785 26.992L36.031 22.1926C36.1304 21.9346 36.0572 21.6421 35.8478 21.4612L33.9647 19.8363ZM33.1236 26.0883L30.7242 26.0177C30.4982 26.0106 30.285 26.1209 30.16 26.3092C29.2931 27.6112 28.2059 28.7527 26.9477 29.6823C26.7671 29.8159 26.6674 30.0326 26.684 30.2567L26.8605 32.6574L22.9884 34.3513L21.3261 32.6181C21.174 32.4595 20.9524 32.3879 20.736 32.4275C19.1911 32.7101 17.612 32.751 16.0546 32.5484C15.8362 32.5199 15.6182 32.603 15.4744 32.7699L13.9234 34.568L9.98639 33.049L10.0567 30.6493C10.0634 30.4239 9.95346 30.2107 9.76582 30.0854C8.46351 29.2181 7.32199 28.1313 6.39241 26.8731C6.25879 26.6925 6.04206 26.593 5.81797 26.6094L3.4173 26.7858L1.72341 22.9137L3.4563 21.2515C3.61517 21.0993 3.68678 20.8778 3.64714 20.6614C3.36424 19.1164 3.32364 17.5373 3.52631 15.9799C3.55476 15.7616 3.47132 15.5436 3.30478 15.3997L1.50635 13.8481L3.02571 9.9111L5.42543 9.98174C5.65079 9.98814 5.86401 9.87817 5.98931 9.69021C6.85656 8.38822 7.94342 7.24703 9.20193 6.31712C9.38254 6.18383 9.48196 5.96677 9.46533 5.74301L9.28888 3.34202L13.161 1.64812L14.8232 3.38134C14.9754 3.53989 15.1972 3.61149 15.4133 3.57218C16.9586 3.28895 18.5383 3.24804 20.0961 3.45102C20.3144 3.47947 20.5324 3.39604 20.6763 3.2295L22.2276 1.43139L26.1642 2.95075L26.0936 5.35014C26.0869 5.57583 26.1968 5.78904 26.3848 5.91435C27.6868 6.78128 28.8283 7.86845 29.7579 9.12665C29.8915 9.30725 30.1082 9.40667 30.3323 9.39037L32.733 9.21391L34.4272 13.086L32.694 14.7482C32.5354 14.9004 32.4635 15.1219 32.5032 15.3383C32.7861 16.8833 32.827 18.4624 32.6243 20.0198C32.5959 20.2381 32.679 20.4558 32.8458 20.5997L34.6433 22.1513L33.1236 26.0883Z" fill="white"/>
<path d="M18.0747 10.234C15.7782 10.234 13.9165 12.0954 13.9165 14.3919C13.9165 16.6887 15.7782 18.5501 18.0747 18.5501C20.3711 18.5501 22.2329 16.6883 22.2329 14.3919C22.2303 12.0967 20.3702 10.2366 18.0747 10.234ZM18.0747 17.2407C16.5013 17.2407 15.2258 15.9653 15.2258 14.3919C15.2258 12.8185 16.5013 11.543 18.0747 11.543C19.6481 11.543 20.9235 12.8185 20.9235 14.3919C20.9216 15.9646 19.6474 17.2388 18.0747 17.2407Z" fill="white"/>
</g>
<defs>
<clipPath id="clip0">
<rect width="36" height="36" fill="white"/>
</clipPath>
</defs>
</svg>
