<svg width="37" height="37" viewBox="0 0 37 37" fill="none" xmlns="http://www.w3.org/2000/svg">
<g clip-path="url(#clip0)">
<path d="M26.9069 0H5.46812C2.45298 0 0 2.45298 0 5.46812V17.9459C0 20.9611 2.45298 23.4141 5.46812 23.4141H5.7053V26.742C5.7053 27.0343 5.88141 27.2978 6.15139 27.4096C6.24079 27.4466 6.33473 27.4646 6.42781 27.4646C6.61592 27.4646 6.8007 27.3912 6.93895 27.253L10.7779 23.4141H13.4803C13.8793 23.4141 14.2029 23.0905 14.2029 22.6914C14.2029 22.2924 13.8793 21.9688 13.4802 21.9688H10.4785C10.2869 21.9688 10.1031 22.0449 9.96753 22.1804L7.15068 24.9973V22.6914C7.15068 22.2924 6.82708 21.9688 6.42803 21.9688H5.46812C3.24993 21.9688 1.44531 20.1641 1.44531 17.9459V5.46812C1.44531 3.24993 3.24993 1.44531 5.46812 1.44531H26.9069C29.1251 1.44531 30.9297 3.24993 30.9297 5.46812V11.707C30.9297 12.1061 31.2533 12.4297 31.6523 12.4297C32.0514 12.4297 32.375 12.1061 32.375 11.707V5.46812C32.375 2.45298 29.922 0 26.9069 0Z" fill="#121212"/>
<path d="M18.7107 17.2064C18.3116 17.2064 17.988 17.53 17.988 17.929V17.9368C17.988 18.3359 18.3116 18.6595 18.7107 18.6595C19.1097 18.6595 19.4333 18.3359 19.4333 17.9368V17.929C19.4333 17.5299 19.1097 17.2064 18.7107 17.2064Z" fill="#121212"/>
<path d="M37.0001 20.7973C37.0001 19.5989 36.0776 18.6126 34.9056 18.5094C35.0137 18.2432 35.0738 17.9526 35.0738 17.648V17.6176C35.0738 16.3509 34.0433 15.3203 32.7766 15.3203H22.6979C22.6076 15.3203 22.5181 15.3372 22.434 15.3702L21.2511 15.8341C21.2341 15.4501 20.9183 15.1437 20.53 15.1437H16.7722C16.3732 15.1437 16.0496 15.4673 16.0496 15.8663V28.5851C16.0496 28.9841 16.3732 29.3077 16.7722 29.3077H20.53C20.7488 29.3077 20.9445 29.21 21.0771 29.0563L27.4327 36.738C27.5687 36.9023 27.7703 36.9982 27.9836 37C27.9855 37 27.9876 37 27.9895 37C28.2006 37 28.4013 36.9077 28.5386 36.7471L28.8141 36.4252C29.9572 35.0892 30.2094 33.1992 29.4565 31.6103L28.4492 29.4844H32.7766C34.0433 29.4844 35.0738 28.4538 35.0738 27.187V27.1567C35.0738 26.8521 35.0137 26.5614 34.9056 26.2952C36.0776 26.1921 37.0001 25.2057 37.0001 24.0073V23.977C37.0001 23.3679 36.7614 22.8139 36.3732 22.4023C36.7614 21.9908 37.0001 21.4367 37.0001 20.8277V20.7973ZM19.8074 27.1782C19.8017 27.2302 19.8017 27.2827 19.8074 27.3349V27.8624H17.4949V16.589H19.8074V27.1782ZM35.5548 20.8277C35.5548 21.2975 35.1726 21.6797 34.7028 21.6797H29.8763C29.4772 21.6797 29.1536 22.0033 29.1536 22.4023C29.1536 22.8014 29.4772 23.125 29.8763 23.125H34.7028C35.1726 23.125 35.5548 23.5072 35.5548 23.977V24.0073C35.5548 24.4771 35.1726 24.8594 34.7028 24.8594H29.8763C29.4772 24.8594 29.1536 25.183 29.1536 25.582C29.1536 25.9811 29.4772 26.3047 29.8763 26.3047H32.7766C33.2464 26.3047 33.6285 26.6869 33.6285 27.1567V27.187C33.6285 27.6568 33.2464 28.039 32.7766 28.039H27.3071C27.0594 28.039 26.8289 28.1659 26.6965 28.3753C26.564 28.5846 26.548 28.8472 26.654 29.0711L28.1503 32.2291C28.5957 33.1692 28.5211 34.2649 27.9778 35.1295L21.2527 27.0012V17.3859L22.8345 16.7656H32.7766C33.2464 16.7656 33.6285 17.1478 33.6285 17.6176V17.648C33.6285 18.1178 33.2464 18.5 32.7766 18.5H29.8763C29.4772 18.5 29.1536 18.8236 29.1536 19.2226C29.1536 19.6217 29.4772 19.9453 29.8763 19.9453H32.7766H34.7028C35.1726 19.9453 35.5548 20.3275 35.5548 20.7973V20.8277Z" fill="#E9041E"/>
<path d="M26.8828 10.9844H5.49219C5.09314 10.9844 4.76953 11.308 4.76953 11.707C4.76953 12.1061 5.09314 12.4297 5.49219 12.4297H26.8828C27.2819 12.4297 27.6055 12.1061 27.6055 11.707C27.6055 11.308 27.2819 10.9844 26.8828 10.9844Z" fill="#121212"/>
<path d="M23.0157 6.35938H5.49219C5.09314 6.35938 4.76953 6.68298 4.76953 7.08203C4.76953 7.48108 5.09314 7.80469 5.49219 7.80469H23.0157C23.4148 7.80469 23.7384 7.48108 23.7384 7.08203C23.7384 6.68298 23.4148 6.35938 23.0157 6.35938Z" fill="#121212"/>
<path d="M27.3937 6.57111C27.2593 6.43663 27.0729 6.35938 26.8828 6.35938C26.6928 6.35938 26.5063 6.43663 26.3719 6.57111C26.2375 6.7056 26.1602 6.89197 26.1602 7.08203C26.1602 7.27281 26.2374 7.45854 26.3719 7.59288C26.5063 7.72729 26.6928 7.80469 26.8828 7.80469C27.0729 7.80469 27.2593 7.72736 27.3937 7.59288C27.5281 7.45854 27.6055 7.27209 27.6055 7.08203C27.6055 6.89197 27.5281 6.70553 27.3937 6.57111Z" fill="#121212"/>
<path d="M13.4802 15.6094H5.49219C5.09314 15.6094 4.76953 15.933 4.76953 16.332C4.76953 16.7311 5.09314 17.0547 5.49219 17.0547H13.4802C13.8793 17.0547 14.2029 16.7311 14.2029 16.332C14.2029 15.933 13.8793 15.6094 13.4802 15.6094Z" fill="#121212"/>
</g>
<defs>
<clipPath id="clip0">
<rect width="37" height="37" fill="white"/>
</clipPath>
</defs>
</svg>
