<svg width="37" height="37" viewBox="0 0 37 37" fill="none" xmlns="http://www.w3.org/2000/svg">
<g clip-path="url(#clip0)">
<path d="M10.2635 31.3758C8.21146 31.3758 6.03059 30.064 6.03059 27.6418V9.41449C6.03059 7.18534 7.44691 5.62418 9.47484 5.62418H21.7873L19.1398 8.27174C18.8178 8.57751 18.8099 9.09257 19.1237 9.40642C19.4295 9.72834 19.9445 9.73633 20.2584 9.42249C20.2665 9.41441 20.2745 9.40642 20.2745 9.40642L24.2981 5.38275C24.612 5.06891 24.612 4.56192 24.2981 4.24807L20.2745 0.224411C19.9525 -0.0813638 19.4455 -0.0733667 19.1398 0.240481C18.842 0.554329 18.842 1.04524 19.1398 1.35909L21.7954 4.00665H9.48292C6.54565 4.01473 4.42114 6.28409 4.42114 9.41449V27.6418C4.42114 30.6354 6.98828 32.9853 10.2635 32.9853C10.7062 32.9853 11.0683 32.6231 11.0683 32.1805C11.0683 31.7379 10.7062 31.3758 10.2635 31.3758Z" fill="black"/>
<path d="M27.509 4.01477C27.0664 4.01477 26.7043 4.3769 26.7043 4.81953C26.7043 5.26216 27.0664 5.6243 27.509 5.6243C29.7462 5.6243 30.9774 6.89576 30.9774 9.19733V27.3281C30.9774 29.3399 29.8991 31.3759 27.4849 31.3759H16.8221L19.4697 28.7283C19.7754 28.4064 19.7674 27.8994 19.4536 27.5936C19.1397 27.2959 18.6488 27.2959 18.335 27.5936L14.3113 31.6173C13.9975 31.9311 13.9975 32.4381 14.3113 32.752L18.335 36.7756C18.6569 37.0814 19.1639 37.0734 19.4697 36.7596C19.7674 36.4457 19.7674 35.9548 19.4697 35.641L16.8221 32.9853H27.4768C30.4785 32.9853 32.5789 30.6596 32.5789 27.328V9.19726C32.5869 6.00242 30.6395 4.01477 27.509 4.01477Z" fill="#E9041E"/>
</g>
<defs>
<clipPath id="clip0">
<rect width="37" height="37" fill="white"/>
</clipPath>
</defs>
</svg>
